<svg width="53" height="54" viewBox="0 0 53 54" fill="none" xmlns="http://www.w3.org/2000/svg">
<path fill-rule="evenodd" clip-rule="evenodd" d="M26.6017 0.795898C41.1113 0.795898 52.8772 12.5596 52.8772 27.0714C52.8772 41.5832 41.1135 53.3469 26.6017 53.3469C12.0921 53.3469 0.326172 41.5832 0.326172 27.0714C0.326172 12.5596 12.0921 0.795898 26.6017 0.795898ZM24.3588 15.6275V27.0731C24.3588 27.9028 24.8082 28.6267 25.478 29.0156L35.1541 34.6054C36.228 35.2277 37.6023 34.8604 38.2246 33.7864C38.8469 32.7125 38.4796 31.3382 37.4056 30.7159L28.8442 25.772V15.6268C28.8442 14.3865 27.8416 13.3839 26.6013 13.3839C25.361 13.3839 24.3584 14.3887 24.3584 15.6268L24.3588 15.6275ZM41.9976 11.6775C33.4949 3.17474 19.711 3.17474 11.2083 11.6775C2.70552 20.178 2.70552 33.9641 11.2083 42.4669C19.7088 50.9696 33.4949 50.9696 41.9976 42.4669C50.5004 33.9641 50.5004 20.1803 41.9976 11.6775Z" fill="#224B73"/>
</svg>
