<svg width="87" height="54" viewBox="0 0 87 54" fill="none" xmlns="http://www.w3.org/2000/svg">
<path d="M85.9518 22.1756L74.1839 2.20733C73.992 1.88128 73.7374 1.59648 73.4348 1.36937C73.1322 1.14226 72.7877 0.97735 72.421 0.884156C72.0543 0.790963 71.6728 0.771335 71.2985 0.826406C70.9242 0.881477 70.5646 1.01016 70.2403 1.20501L64.4701 4.66695C63.8232 5.05757 63.3562 5.68716 63.1701 6.41949C62.9839 7.15182 63.0936 7.92799 63.4754 8.58008L63.7609 9.06077L57.7318 12.9292C55.474 13.8734 53.714 13.6021 51.063 13.1928C49.7799 12.9939 48.3254 12.7702 46.555 12.6426C45.2977 12.5437 44.0337 12.715 42.8482 13.1452C41.6626 13.5754 40.5829 14.2543 39.6815 15.1365L33.1089 14.4702C31.7168 14.3465 30.3749 13.8894 29.1967 13.1376L23.0477 9.31587L23.3475 8.78663C23.5337 8.45731 23.6529 8.09439 23.6982 7.71878C23.7435 7.34317 23.7139 6.96231 23.6113 6.59818C23.5086 6.23404 23.3349 5.89383 23.1001 5.59717C22.8653 5.30051 22.5741 5.05326 22.2433 4.8697L16.3608 1.60384C15.6992 1.23862 14.9203 1.14871 14.1929 1.35359C13.4655 1.55847 12.8481 2.04165 12.4743 2.69849L1.0643 22.8781C0.878198 23.2074 0.759111 23.5703 0.713904 23.9459C0.668698 24.3215 0.698267 24.7023 0.800905 25.0664C0.903544 25.4305 1.07722 25.7707 1.31193 26.0674C1.54665 26.364 1.83775 26.6113 2.16847 26.795L8.051 30.0599C8.47385 30.2956 8.94998 30.4191 9.43407 30.4188C9.94264 30.4197 10.4423 30.2856 10.8822 30.0302C11.322 29.7749 11.6861 29.4074 11.9375 28.9653L12.1145 28.6511C14.8749 30.3969 17.6011 32.1588 20.4119 34.1834L19.6876 35.319C19.3042 35.9205 19.0894 36.614 19.0655 37.3269C19.0415 38.0398 19.2093 38.7461 19.5514 39.372C19.8935 39.998 20.3973 40.5206 21.0103 40.8854C21.6233 41.2503 22.3229 41.4439 23.0362 41.4461C23.1086 41.4461 23.1819 41.4461 23.2552 41.4404C23.1598 42.1882 23.2799 42.9476 23.6013 43.6295C23.9226 44.3114 24.432 44.8874 25.0694 45.2898C25.708 45.6915 26.4472 45.9044 27.2016 45.9037C27.3992 45.9031 27.5964 45.8882 27.7918 45.859C27.79 46.1589 27.8219 46.4581 27.887 46.7509C28.0818 47.636 28.5731 48.4281 29.2795 48.9959C29.986 49.5637 30.8652 49.8732 31.7715 49.873C32.7756 49.8736 33.7435 49.498 34.4843 48.8202C34.8157 49.4785 35.3234 50.0318 35.9508 50.4183C36.5782 50.8049 37.3007 51.0096 38.0377 51.0095C38.6043 51.0097 39.1644 50.8895 39.681 50.6568C40.1976 50.4241 40.6588 50.0843 41.0341 49.6598L45.5612 52.5478C46.359 53.063 47.2873 53.3397 48.2369 53.3454C48.9025 53.3638 49.5619 53.2131 50.1534 52.9073C50.7449 52.6014 51.2491 52.1506 51.6189 51.5968C52.0793 50.866 52.2718 49.998 52.1634 49.141C52.4641 49.2025 52.7702 49.2344 53.0772 49.2362C53.2854 49.2366 53.4934 49.2226 53.6997 49.1943C54.257 49.1303 54.7933 48.9441 55.2704 48.6491C55.7475 48.3541 56.1537 47.9576 56.4601 47.4876C56.9349 46.7377 57.1257 45.8426 56.9979 44.9642C57.2558 45.0083 57.5168 45.0309 57.7784 45.0318C58.3033 45.0507 58.8265 44.9627 59.3164 44.7733C59.8062 44.5839 60.2525 44.2969 60.6281 43.9299C61.0037 43.5628 61.3008 43.1232 61.5015 42.6379C61.7021 42.1525 61.8021 41.6315 61.7953 41.1063C62.2367 41.2367 62.6943 41.3037 63.1546 41.3053C63.4746 41.3053 63.7938 41.2709 64.1064 41.2025C64.6036 41.1058 65.0759 40.9088 65.4942 40.6233C65.9126 40.3378 66.2683 39.97 66.5395 39.5422C66.8108 39.1145 66.9919 38.6359 67.0717 38.1358C67.1516 37.6356 67.1285 37.1244 67.0039 36.6335C66.7998 35.7697 66.3549 34.9815 65.7208 34.3604C66.2319 34.0006 66.6879 33.6427 67.1343 33.2915C67.8764 32.6686 68.6768 32.1187 69.5245 31.6495C69.5521 31.6352 69.5797 31.62 69.6063 31.6029L74.9986 28.1343L75.2423 28.5474C75.4317 28.8753 75.6856 29.1615 75.9885 29.3887C76.2915 29.616 76.6373 29.7795 77.0052 29.8695C77.2408 29.9313 77.4832 29.9633 77.7267 29.9647C78.2417 29.9637 78.7465 29.8212 79.1859 29.5526L84.9561 26.0906C85.6038 25.7003 86.0716 25.0704 86.2579 24.3376C86.4443 23.6047 86.3343 22.8279 85.9518 22.1756ZM9.04095 28.2675L3.15841 25.0045C3.06377 24.9522 2.98046 24.8816 2.9133 24.7968C2.84615 24.712 2.79648 24.6147 2.76717 24.5106C2.73787 24.4065 2.72951 24.2976 2.74259 24.1902C2.75566 24.0829 2.78991 23.9792 2.84334 23.8851L14.2524 3.70557C14.359 3.51784 14.5354 3.37975 14.7432 3.32129C14.951 3.26284 15.1735 3.28873 15.3623 3.39335L21.2448 6.65826C21.3393 6.7108 21.4224 6.78152 21.4894 6.86632C21.5564 6.95113 21.606 7.04835 21.6353 7.15239C21.6646 7.25644 21.673 7.36525 21.6601 7.47255C21.6471 7.57986 21.6131 7.68355 21.5599 7.77765L10.1508 27.9572C10.0441 28.144 9.86823 28.2814 9.66118 28.3398C9.45412 28.3982 9.23241 28.3729 9.0438 28.2694L9.04095 28.2675ZM22.0054 39.0998C21.5736 38.8212 21.2693 38.3835 21.1584 37.8818C21.0475 37.38 21.1391 36.8548 21.4133 36.4203L24.3955 31.7466C24.5321 31.5317 24.7101 31.346 24.9191 31.2004C25.1281 31.0548 25.364 30.9522 25.6129 30.8985C25.7533 30.8675 25.8966 30.8519 26.0403 30.8519C26.3866 30.8545 26.7258 30.9496 27.0229 31.1274C27.32 31.3052 27.5641 31.5592 27.73 31.863C27.896 32.1669 27.9776 32.5096 27.9665 32.8557C27.9555 33.2017 27.8521 33.5385 27.6671 33.8312L24.6849 38.5058C24.4065 38.9378 23.9687 39.2423 23.4669 39.3532C22.9651 39.464 22.4399 39.3723 22.0054 39.0979V39.0998ZM26.1603 43.5602C25.9477 43.4259 25.7638 43.2507 25.6193 43.0448C25.4748 42.839 25.3725 42.6066 25.3183 42.361C25.2641 42.1154 25.2592 41.8615 25.3037 41.6139C25.3482 41.3664 25.4414 41.1301 25.5777 40.9188L30.5065 33.3162C30.6872 33.0392 30.9344 32.8117 31.2255 32.6546C31.5166 32.4975 31.8424 32.4157 32.1732 32.4167C32.5437 32.4163 32.9068 32.5209 33.2203 32.7185C33.6184 32.9688 33.9094 33.358 34.0369 33.8107C34.1644 34.2634 34.1193 34.7473 33.9104 35.1686L32.6415 37.1532L28.8759 42.9596C28.5918 43.395 28.1483 43.7018 27.6407 43.8141C27.133 43.9264 26.6015 43.8352 26.1603 43.5602ZM30.7292 47.5267C30.2978 47.2499 29.9935 46.8135 29.8829 46.313C29.7723 45.8125 29.8644 45.2885 30.1391 44.8557L34.3682 38.2488L35.52 36.4736C35.579 36.3784 35.6323 36.2889 35.6837 36.1947L36.0349 35.6455C36.314 35.2118 36.7531 34.9061 37.2566 34.7948C37.7601 34.6835 38.2872 34.7758 38.723 35.0515C39.1543 35.3286 39.4585 35.7651 39.569 36.2657C39.6796 36.7663 39.5876 37.2904 39.3132 37.7234L38.031 39.7223C37.8953 39.8747 37.7715 40.0373 37.6607 40.2087L34.6785 44.8824C34.5766 45.042 34.4863 45.2087 34.4082 45.3811L33.4173 46.9298C33.1389 47.3633 32.7005 47.6693 32.1976 47.7811C31.6946 47.8929 31.1679 47.8014 30.7321 47.5267H30.7292ZM38.4584 48.9221C38.1172 48.9968 37.7621 48.978 37.4306 48.8677C37.0992 48.7575 36.8036 48.5598 36.5752 48.2956C36.3467 48.0313 36.1938 47.7103 36.1325 47.3664C36.0713 47.0225 36.104 46.6684 36.2272 46.3416L39.6596 40.9788C40.0233 40.6191 40.514 40.417 41.0256 40.4162C41.373 40.4174 41.7138 40.5117 42.0124 40.6892C42.3111 40.8668 42.5566 41.1211 42.7236 41.4258C42.8906 41.7305 42.9728 42.0744 42.9618 42.4216C42.9508 42.7689 42.8468 43.1068 42.6609 43.4003L39.9005 47.7285L39.6815 48.0711C39.5446 48.2867 39.3662 48.4729 39.1567 48.619C38.9473 48.7651 38.7109 48.8681 38.4612 48.9221H38.4584ZM64.8089 38.4573C64.6778 38.6518 64.5093 38.8184 64.3132 38.9472C64.1171 39.0759 63.8973 39.1644 63.6667 39.2073C62.9421 39.3467 62.1917 39.1949 61.5783 38.7847L53.4465 33.5494C53.218 33.4041 52.9413 33.3551 52.6768 33.4132C52.4124 33.4713 52.1817 33.6318 52.0352 33.8596C51.8887 34.0873 51.8384 34.3638 51.8953 34.6285C51.9521 34.8933 52.1115 35.1248 52.3385 35.2723L58.6094 39.3063C59.1422 39.6117 59.5336 40.1143 59.6993 40.7056C59.7592 40.9572 59.7668 41.2185 59.7218 41.4732C59.6768 41.728 59.58 41.9708 59.4375 42.1867C59.0432 42.6441 58.4885 42.9328 57.8876 42.9934C57.2867 43.0539 56.6855 42.8817 56.2078 42.5122L50.7108 39.0055C50.4819 38.8659 50.2075 38.8216 49.9463 38.8821C49.6851 38.9426 49.4581 39.1031 49.3139 39.3292C49.1698 39.5552 49.12 39.8287 49.1752 40.091C49.2305 40.3534 49.3864 40.5836 49.6095 40.7322L53.674 43.3251C54.2486 43.6815 54.6786 44.2298 54.8876 44.8728C54.9825 45.1207 55.0179 45.3874 54.9909 45.6514C54.964 45.9154 54.8754 46.1694 54.7323 46.393C54.5893 46.6165 54.3957 46.8033 54.1672 46.9384C53.9388 47.0735 53.6818 47.153 53.417 47.1707C52.7447 47.2506 52.0658 47.0897 51.5009 46.7166L49.9255 45.7114L47.8219 44.3693C47.7085 44.2938 47.5812 44.2416 47.4475 44.2159C47.3137 44.1901 47.1761 44.1913 47.0428 44.2194C46.9095 44.2475 46.7832 44.3019 46.6711 44.3794C46.5591 44.4569 46.4637 44.556 46.3904 44.6709C46.3172 44.7857 46.2676 44.914 46.2445 45.0483C46.2215 45.1826 46.2254 45.3201 46.2562 45.4528C46.2869 45.5855 46.3438 45.7107 46.4236 45.8212C46.5033 45.9316 46.6043 46.0251 46.7206 46.096L48.829 47.4429C49.1239 47.5457 49.3918 47.714 49.6124 47.9352C49.8329 48.1564 50.0005 48.4247 50.1026 48.7199C50.2046 49.0152 50.2384 49.3297 50.2014 49.6399C50.1644 49.9501 50.0576 50.2478 49.889 50.5108C49.7205 50.7738 49.4945 50.9952 49.2281 51.1583C48.9617 51.3214 48.6618 51.4221 48.3509 51.4527C48.04 51.4832 47.7263 51.443 47.4332 51.3349C47.1401 51.2269 46.8753 51.0538 46.6587 50.8287L42.1735 47.9674L44.3847 44.5016C44.7576 43.9177 44.9718 43.2466 45.0063 42.5547C45.0408 41.8627 44.8943 41.1737 44.5814 40.5555C44.2684 39.9374 43.7998 39.4115 43.2216 39.0297C42.6435 38.6479 41.9758 38.4234 41.2845 38.3783C41.6965 37.5019 41.7752 36.5054 41.506 35.5752C41.2367 34.645 40.6379 33.8447 39.8215 33.3239C39.2497 32.961 38.5951 32.7493 37.9192 32.7087C37.2432 32.6681 36.568 32.7998 35.9569 33.0916C35.6721 32.2177 35.0888 31.472 34.3092 30.9851C33.6075 30.5476 32.7886 30.3354 31.9628 30.3773C31.1369 30.4192 30.3436 30.713 29.6898 31.2193C29.3777 30.4822 28.8488 29.8575 28.1735 29.4279C27.2816 28.8632 26.2026 28.6742 25.1718 28.9021C24.1411 29.13 23.2424 29.7563 22.6717 30.6443L21.518 32.4529C18.6624 30.4045 15.9115 28.6283 13.1254 26.8664L22.0396 11.1016L28.1173 14.8786C29.5608 15.7921 31.2003 16.3503 32.9014 16.5072L37.9387 17.0146C36.9665 18.276 36.0616 19.588 35.2278 20.9448C34.3031 22.4926 33.2555 23.9635 32.0952 25.3434C31.328 26.1944 31.5307 27.4832 32.5996 28.5493C33.065 29.0825 33.6323 29.5173 34.2682 29.8279C34.9041 30.1385 35.5958 30.3187 36.3024 30.3578H36.4404C38.7401 30.276 40.4725 28.2866 42.1469 26.36C43.4424 24.8713 44.7816 23.3312 45.8953 23.3845C46.6393 23.6993 47.3175 24.1514 47.8942 24.7171C48.8767 25.6118 50.003 26.3346 51.2258 26.855L63.7162 35.3732L63.7533 35.397C64.3794 35.7722 64.8309 36.3806 65.0088 37.0885C65.068 37.3185 65.0809 37.558 65.0465 37.793C65.0122 38.028 64.9314 38.2538 64.8089 38.4573ZM68.5393 29.8562C67.5951 30.3794 66.7027 30.991 65.8741 31.6828C65.2645 32.1773 64.6301 32.6402 63.9732 33.0697L56.8275 28.1914C57.9372 28.2792 59.0533 28.1449 60.1105 27.7964C60.24 27.7514 60.3592 27.681 60.461 27.5891C60.5628 27.4973 60.6452 27.3859 60.7031 27.2616C60.7611 27.1374 60.7935 27.0027 60.7985 26.8657C60.8034 26.7287 60.7808 26.5921 60.732 26.464C60.6832 26.3358 60.6091 26.2188 60.5142 26.1199C60.4193 26.0209 60.3055 25.942 60.1796 25.8878C60.0536 25.8336 59.9181 25.8053 59.7809 25.8045C59.6438 25.8037 59.508 25.8304 59.3814 25.8831C57.7918 26.4894 54.7772 26.1458 52.2167 25.0502C52.1608 25.0194 52.1022 24.9939 52.0415 24.9741C51.0377 24.5461 50.1119 23.9542 49.3021 23.2226C49.283 23.2046 47.3574 21.4036 46.0124 21.3389C43.8916 21.239 42.2192 23.157 40.6039 25.0141C39.2161 26.6084 37.7816 28.258 36.37 28.3075C35.9206 28.2772 35.4823 28.1544 35.0826 27.9467C34.683 27.739 34.3305 27.4509 34.0474 27.1005C33.9033 26.963 33.7873 26.7988 33.7057 26.617C34.903 25.1789 35.9888 23.6515 36.9535 22.048C39.4788 18.0921 41.8651 14.356 46.4065 14.6815C48.0941 14.8034 49.5048 15.0214 50.7489 15.2136C53.5598 15.6477 55.7795 15.9904 58.6132 14.7758C58.6651 14.7542 58.715 14.7284 58.7627 14.6987L64.7994 10.8255L73.9602 26.3686L68.5393 29.8562ZM83.9043 24.3354L78.1341 27.7964C78.0416 27.8522 77.9389 27.8891 77.832 27.9049C77.7251 27.9208 77.6162 27.9153 77.5114 27.8887C77.4067 27.8622 77.3083 27.8151 77.2219 27.7502C77.1355 27.6853 77.0628 27.604 77.008 27.5108L65.2401 7.53969C65.1311 7.35331 65.1 7.13149 65.1534 6.9223C65.2069 6.71311 65.3406 6.53342 65.5257 6.42219L71.2959 2.96025C71.4172 2.88317 71.5577 2.84163 71.7014 2.84032C71.7746 2.84087 71.8475 2.85046 71.9184 2.86888C72.0247 2.89264 72.1246 2.93893 72.2115 3.00461C72.2984 3.07029 72.3701 3.15384 72.4219 3.24962L84.188 23.216C84.2971 23.4021 84.3286 23.6238 84.2755 23.8329C84.2224 24.0421 84.089 24.2219 83.9043 24.3335V24.3354Z" fill="#224B73"/>
</svg>
