<svg width="53" height="66" viewBox="0 0 53 66" fill="none" xmlns="http://www.w3.org/2000/svg">
<path d="M52.1131 9.0153L27.0322 0.654503C26.7814 0.570895 26.5186 0.570895 26.2798 0.654503L1.19887 9.0153C0.709197 9.18251 0.386719 9.63636 0.386719 10.15V30.6445C0.386719 46.5291 11.0521 60.6824 26.3398 65.0417C26.4472 65.0775 26.5547 65.0895 26.6622 65.0895C26.7697 65.0895 26.8772 65.0775 26.9847 65.0417C42.2601 60.6823 52.9377 46.5291 52.9377 30.6445V10.15C52.9377 9.63638 52.6033 9.18255 52.1256 9.0153H52.1131ZM50.5365 30.645C50.5365 45.3593 40.7311 58.4731 26.6496 62.6535C12.5682 58.4732 2.76271 45.3593 2.76271 30.645V11.0096L26.6496 3.04319L50.5365 11.0096V30.645Z" fill="#224B73"/>
<path d="M26.2668 8.21481L8.35122 14.1865C7.86154 14.3537 7.53906 14.8076 7.53906 15.3212V30.6447C7.53906 42.5523 15.0515 53.3377 26.2305 57.4814C26.3619 57.5292 26.5052 57.5531 26.6485 57.5531C26.7918 57.5531 26.9351 57.5292 27.0665 57.4814C38.2456 53.337 45.7579 42.5523 45.7579 30.6447V15.3212C45.7579 14.8076 45.4235 14.3538 44.9458 14.1865L27.0302 8.21481C26.7794 8.1312 26.5166 8.1312 26.2778 8.21481H26.2668ZM43.3698 16.1812V30.6448C43.3698 41.418 36.6696 51.1753 26.649 55.0813C16.6287 51.1758 9.92814 41.4058 9.92814 30.6448V16.1812L26.649 10.6036L43.3698 16.1812Z" fill="#224B73"/>
<path d="M19.1388 30.5966C18.673 30.1308 17.9205 30.1308 17.4548 30.5966C16.9891 31.0624 16.989 31.8149 17.4548 32.2806L24.1073 38.9331C24.3342 39.16 24.6328 39.2794 24.9553 39.2794H25.0269C25.3733 39.2555 25.6838 39.0883 25.8988 38.8256L35.9672 25.9389C36.3733 25.4134 36.2778 24.6729 35.7642 24.2668C35.2387 23.8607 34.4982 23.9563 34.0921 24.4698L24.8599 36.294L19.1629 30.597L19.1388 30.5966Z" fill="#224B73"/>
</svg>
