<svg width="53" height="73" viewBox="0 0 53 73" fill="none" xmlns="http://www.w3.org/2000/svg">
<path d="M26.4279 0.387695C14.2096 0.387695 4.26961 10.3342 4.26961 22.5605C4.26961 29.8273 7.78022 36.2986 13.1945 40.3449L4.3209 55.3321C4.19522 55.5177 4.10886 55.7271 4.06713 55.9474C4.02541 56.1677 4.02921 56.3943 4.07829 56.6131C4.12738 56.8319 4.22072 57.0383 4.35255 57.2197C4.48439 57.401 4.65193 57.5533 4.84486 57.6674C5.03779 57.7815 5.25201 57.8548 5.47434 57.8829C5.69667 57.911 5.92239 57.8933 6.1376 57.8308C6.35281 57.7683 6.55294 57.6623 6.72567 57.5195C6.89841 57.3766 7.04009 57.1999 7.14198 57.0002L15.9642 42.09C19.0869 43.7748 22.6384 44.7332 26.4279 44.7332C30.2174 44.7332 33.7689 43.7748 36.8915 42.09L48.1758 61.1575H42.0207C41.718 61.1578 41.4212 61.2419 41.1632 61.4004C40.9052 61.5589 40.6961 61.7858 40.5589 62.0558L37.7891 67.5989L27.8384 51.2516C27.6929 51.0071 27.4864 50.8045 27.2391 50.6638C26.9919 50.5232 26.7123 50.4492 26.4279 50.4492C26.1434 50.4492 25.8639 50.5232 25.6166 50.6638C25.3693 50.8045 25.1628 51.0071 25.0173 51.2516L15.0666 67.5989L12.2968 62.0558C12.1597 61.7858 11.9505 61.5589 11.6925 61.4004C11.4345 61.2419 11.1378 61.1578 10.835 61.1575H1.80758C1.59006 61.1544 1.37409 61.1947 1.17222 61.2758C0.970359 61.3569 0.786623 61.4774 0.6317 61.6302C0.476777 61.7831 0.353757 61.9652 0.269788 62.166C0.185819 62.3668 0.142578 62.5823 0.142578 62.7999C0.142578 63.0176 0.185819 63.2332 0.269788 63.434C0.353757 63.6348 0.476777 63.8169 0.6317 63.9698C0.786623 64.1226 0.970359 64.243 1.17222 64.3242C1.37409 64.4053 1.59006 64.4455 1.80758 64.4424H9.83482L13.4766 71.7307C13.6067 71.9942 13.8051 72.2177 14.051 72.3783C14.297 72.5389 14.5815 72.6306 14.8749 72.6437C15.1683 72.6569 15.4598 72.5909 15.7191 72.4529C15.9783 72.3149 16.1958 72.1098 16.3489 71.859L26.4279 55.2808L36.5068 71.859C36.6599 72.1098 36.8774 72.3149 37.1367 72.4529C37.3959 72.5909 37.6875 72.6569 37.9808 72.6437C38.2742 72.6306 38.5587 72.5389 38.8047 72.3783C39.0506 72.2177 39.249 71.9942 39.3792 71.7307L43.0209 64.4424H51.0481C51.3391 64.4431 51.6251 64.3664 51.8767 64.2201C52.1283 64.0739 52.3365 63.8633 52.48 63.61C52.6236 63.3567 52.6972 63.0698 52.6935 62.7786C52.6897 62.4874 52.6087 62.2026 52.4587 61.9531L39.6613 40.3449C45.0755 36.2986 48.5861 29.8273 48.5861 22.5605C48.5861 10.3342 38.6461 0.387695 26.4279 0.387695ZM26.4279 3.67253C36.872 3.67253 45.3034 12.1095 45.3034 22.5605C45.3034 33.0114 36.872 41.4484 26.4279 41.4484C15.9837 41.4484 7.55231 33.0114 7.55231 22.5605C7.55231 12.1095 15.9838 3.67253 26.4279 3.67253ZM26.274 9.42105C25.9979 9.44798 25.7331 9.54448 25.5044 9.70156C25.2757 9.85863 25.0904 10.0711 24.966 10.3192L22.0167 16.2217L15.4 17.6845C15.1233 17.7454 14.8671 17.8768 14.6562 18.0662C14.4453 18.2555 14.287 18.4962 14.1967 18.7649C14.1063 19.0336 14.087 19.3211 14.1405 19.5994C14.1941 19.8778 14.3188 20.1376 14.5024 20.3534L18.9648 25.563L18.1955 32.2354C18.1623 32.531 18.2099 32.83 18.3334 33.1006C18.4568 33.3712 18.6513 33.6032 18.8961 33.7718C19.141 33.9405 19.427 34.0394 19.7237 34.0581C20.0203 34.0767 20.3165 34.0144 20.5805 33.8778L26.4279 30.8496L32.2752 33.8778C32.5392 34.0144 32.8354 34.0767 33.132 34.0581C33.4287 34.0394 33.7147 33.9405 33.9596 33.7718C34.2044 33.6032 34.399 33.3712 34.5224 33.1006C34.6458 32.83 34.6934 32.531 34.6603 32.2354L33.8909 25.563L38.3533 20.3534C38.5369 20.1376 38.6616 19.8778 38.7152 19.5994C38.7687 19.3211 38.7494 19.0336 38.659 18.7649C38.5687 18.4962 38.4104 18.2555 38.1995 18.0662C37.9886 17.8768 37.7324 17.7454 37.4557 17.6845L30.839 16.2217L27.8897 10.3192C27.7417 10.0245 27.5084 9.78117 27.2202 9.62097C26.932 9.46076 26.6023 9.39111 26.274 9.42105ZM26.4279 14.7333L28.2487 18.3774C28.3594 18.5907 28.5156 18.7771 28.7061 18.9234C28.8967 19.0697 29.117 19.1725 29.3515 19.2243L34.0704 20.2765L30.9159 23.9463C30.7687 24.1181 30.6585 24.3184 30.5923 24.5348C30.5261 24.7512 30.5053 24.9789 30.5312 25.2038L31.0185 29.5408L27.1716 27.5391C26.9412 27.4219 26.6863 27.3608 26.4279 27.3608C26.1694 27.3608 25.9146 27.4219 25.6841 27.5391L21.8372 29.5408L22.3245 25.2038C22.3504 24.9789 22.3296 24.7512 22.2634 24.5348C22.1972 24.3184 22.087 24.1181 21.9398 23.9463L18.7853 20.2765L23.5042 19.2243C23.7387 19.1725 23.9591 19.0697 24.1496 18.9234C24.3401 18.7771 24.4963 18.5907 24.607 18.3774L26.4279 14.7333Z" fill="#224B73"/>
</svg>
