<svg width="54" height="54" viewBox="0 0 54 54" fill="none" xmlns="http://www.w3.org/2000/svg">
<path fill-rule="evenodd" clip-rule="evenodd" d="M20.7243 6.37837C28.1676 -1.06493 40.2371 -1.06493 47.6804 6.37837C58.356 17.054 52.8928 35.2143 38.3754 38.4559C35.1248 53.019 16.9466 58.409 6.29787 47.7609C-4.34792 37.1128 1.04213 18.9367 15.6029 15.6834C16.3648 12.2731 18.0714 9.03135 20.7243 6.37837ZM18.7967 22.02H29.3538C26.2582 19.5975 22.4442 18.5003 18.6829 18.7626L18.7967 22.02ZM32.6386 25.5239H19.7112C20.131 26.5983 20.6738 27.6362 21.3423 28.6126H34.2696C33.8499 27.5404 33.307 26.5025 32.6386 25.5239ZM35.1844 32.1187H24.625C27.7205 34.5412 31.5345 35.6384 35.2959 35.3761L35.1844 32.1187ZM34.6323 38.912C23.7629 39.1515 14.9075 30.2961 15.147 19.4266C4.05851 22.8734 0.479352 36.9843 8.77583 45.2831C17.0746 53.5819 31.1881 50.0005 34.6323 38.912ZM19.3463 15.2267C30.2134 14.9872 39.0711 23.845 38.8317 34.7121C49.8792 31.279 53.5291 17.1836 45.2028 8.85558C36.8742 0.529316 22.7795 4.18153 19.3463 15.2267Z" fill="#224B73"/>
</svg>
