<svg width="424" height="424" viewBox="0 0 424 424" fill="none" xmlns="http://www.w3.org/2000/svg">
<path d="M424 324.275H0V324.487H424V324.275Z" fill="#EBEBEB"/>
<path d="M381.515 337.92H353.43V338.132H381.515V337.92Z" fill="#EBEBEB"/>
<path d="M280.875 340.226H273.506V340.438H280.875V340.226Z" fill="#EBEBEB"/>
<path d="M352.582 330.05H336.309V330.262H352.582V330.05Z" fill="#EBEBEB"/>
<path d="M81.1115 331.475H44.4863V331.687H81.1115V331.475Z" fill="#EBEBEB"/>
<path d="M94.0339 331.475H88.666V331.687H94.0339V331.475Z" fill="#EBEBEB"/>
<path d="M190.927 335.053H111.486V335.265H190.927V335.053Z" fill="#EBEBEB"/>
<path d="M200.976 286.454H37.2359C35.9532 286.452 34.7238 285.941 33.8176 285.033C32.9113 284.125 32.4023 282.895 32.4023 281.612V51.4397C32.4135 50.1643 32.9274 48.9449 33.8324 48.0462C34.7375 47.1475 35.9605 46.6422 37.2359 46.64H200.976C202.26 46.64 203.492 47.1502 204.4 48.0582C205.308 48.9663 205.818 50.1979 205.818 51.4821V281.612C205.818 282.897 205.308 284.128 204.4 285.036C203.492 285.944 202.26 286.454 200.976 286.454ZM37.2359 46.8096C36.0094 46.8119 34.8339 47.3007 33.9675 48.1687C33.101 49.0368 32.6143 50.2132 32.6143 51.4397V281.612C32.6143 282.839 33.101 284.015 33.9675 284.883C34.8339 285.751 36.0094 286.24 37.2359 286.242H200.976C202.204 286.24 203.38 285.752 204.248 284.884C205.116 284.016 205.604 282.84 205.606 281.612V51.4397C205.604 50.2124 205.116 49.036 204.248 48.1682C203.38 47.3004 202.204 46.8119 200.976 46.8096H37.2359Z" fill="#EBEBEB"/>
<path d="M384.407 286.454H220.658C219.375 286.452 218.145 285.941 217.237 285.034C216.33 284.126 215.819 282.896 215.816 281.612V51.4397C215.83 50.1636 216.346 48.9441 217.252 48.0457C218.158 47.1472 219.382 46.6422 220.658 46.64H384.407C385.681 46.6444 386.902 47.1507 387.805 48.0492C388.709 48.9476 389.221 50.1658 389.232 51.4397V281.612C389.232 282.894 388.725 284.123 387.82 285.03C386.916 285.938 385.689 286.45 384.407 286.454ZM220.658 46.8096C219.431 46.8119 218.255 47.3004 217.387 48.1682C216.519 49.036 216.031 50.2124 216.028 51.4397V281.612C216.031 282.84 216.519 284.016 217.387 284.884C218.255 285.752 219.431 286.24 220.658 286.242H384.407C385.635 286.24 386.811 285.752 387.679 284.884C388.547 284.016 389.035 282.84 389.037 281.612V51.4397C389.035 50.2124 388.547 49.036 387.679 48.1682C386.811 47.3004 385.635 46.8119 384.407 46.8096H220.658Z" fill="#EBEBEB"/>
<path d="M359.009 134.985H60.6992V147.705H359.009V134.985Z" fill="#E6E6E6"/>
<path d="M359.392 133.645H356.475V149.053H359.392V133.645Z" fill="#E0E0E0"/>
<path d="M260.802 133.645H257.885V149.053H260.802V133.645Z" fill="#E0E0E0"/>
<path d="M162.214 133.645H159.297V149.053H162.214V133.645Z" fill="#E0E0E0"/>
<path d="M63.6163 133.645H60.6992V149.053H63.6163V133.645Z" fill="#E0E0E0"/>
<path d="M319.764 133.645H299.734V149.053H319.764V133.645Z" fill="#E0E0E0"/>
<path d="M311.428 114.633H308.07V135.655H311.428V114.633Z" fill="#E0E0E0"/>
<path d="M315.822 119.442C319.173 116.09 319.173 110.657 315.822 107.305C312.47 103.954 307.037 103.954 303.685 107.305C300.334 110.657 300.334 116.09 303.685 119.442C307.037 122.793 312.47 122.793 315.822 119.442Z" fill="#E0E0E0"/>
<path d="M315.847 113.378C315.845 114.583 315.486 115.761 314.815 116.763C314.144 117.764 313.191 118.544 312.077 119.005C310.963 119.465 309.737 119.584 308.555 119.348C307.373 119.112 306.287 118.53 305.435 117.677C304.583 116.824 304.003 115.738 303.769 114.555C303.534 113.373 303.656 112.147 304.117 111.034C304.579 109.92 305.36 108.969 306.363 108.299C307.365 107.629 308.544 107.272 309.749 107.272C310.551 107.272 311.344 107.43 312.085 107.737C312.825 108.044 313.497 108.494 314.064 109.061C314.63 109.628 315.079 110.301 315.385 111.042C315.691 111.782 315.848 112.576 315.847 113.378Z" fill="#EBEBEB"/>
<path d="M359.009 160.425H60.6992V173.145H359.009V160.425Z" fill="#E6E6E6"/>
<path d="M359.392 159.085H356.475V174.493H359.392V159.085Z" fill="#E0E0E0"/>
<path d="M260.802 159.085H257.885V174.493H260.802V159.085Z" fill="#E0E0E0"/>
<path d="M162.214 159.085H159.297V174.493H162.214V159.085Z" fill="#E0E0E0"/>
<path d="M63.6163 159.085H60.6992V174.493H63.6163V159.085Z" fill="#E0E0E0"/>
<path d="M60.6992 186.713V199.433H273.216C275.869 199.433 278.495 199.955 280.945 200.97C283.395 201.986 285.622 203.474 287.497 205.349C289.372 207.225 290.859 209.452 291.873 211.903C292.887 214.353 293.408 216.98 293.407 219.632V323.605H306.127V219.454C306.127 210.77 302.678 202.443 296.538 196.302C290.397 190.162 282.07 186.713 273.386 186.713H60.6992Z" fill="#E6E6E6"/>
<path d="M260.802 185.373H257.885V200.781H260.802V185.373Z" fill="#E0E0E0"/>
<path d="M162.214 185.373H159.297V200.781H162.214V185.373Z" fill="#E0E0E0"/>
<path d="M63.6163 185.373H60.6992V200.781H63.6163V185.373Z" fill="#E0E0E0"/>
<path d="M307.469 323.987V321.07H292.061V323.987H307.469Z" fill="#E0E0E0"/>
<path d="M307.477 234.726V231.809H292.068V234.726H307.477Z" fill="#E0E0E0"/>
<path d="M212.001 362.571C302.807 362.571 376.419 358.273 376.419 352.972C376.419 347.67 302.807 343.372 212.001 343.372C121.195 343.372 47.582 347.67 47.582 352.972C47.582 358.273 121.195 362.571 212.001 362.571Z" fill="#F5F5F5"/>
<path d="M231.072 334.587H241.028C241.858 334.587 242.654 334.917 243.241 335.503C243.827 336.09 244.157 336.886 244.157 337.716V340.26H227.943V337.716C227.943 336.886 228.273 336.09 228.86 335.503C229.447 334.917 230.243 334.587 231.072 334.587Z" stroke="#263238" stroke-width="2" stroke-miterlimit="10"/>
<path d="M218.979 338.03H254.595C255.124 338.03 255.631 338.24 256.004 338.613C256.378 338.987 256.588 339.494 256.588 340.023V354.439H216.986V340.048C216.983 339.784 217.032 339.522 217.131 339.278C217.229 339.033 217.376 338.81 217.561 338.622C217.746 338.435 217.967 338.286 218.211 338.184C218.454 338.082 218.715 338.03 218.979 338.03Z" fill="#263238"/>
<path opacity="0.2" d="M218.979 338.03H238.534C239.063 338.03 239.57 338.24 239.943 338.613C240.317 338.987 240.527 339.494 240.527 340.023V354.439H216.986V340.048C216.983 339.784 217.032 339.522 217.131 339.278C217.229 339.033 217.376 338.81 217.561 338.622C217.746 338.435 217.967 338.286 218.211 338.184C218.454 338.082 218.715 338.03 218.979 338.03Z" fill="white"/>
<path opacity="0.2" d="M256.622 342.872H216.986V343.728H256.622V342.872Z" fill="black"/>
<path d="M115.023 184.016L118.627 179.776C118.627 179.776 117.779 176.265 118.627 175.417C119.475 174.569 121.171 171.822 122.935 171.432C124.699 171.042 128.591 175.129 127.218 177.113C125.844 179.098 124.674 180.921 123.656 180.938H122.655L118.127 185.33L115.023 184.016Z" fill="#E4897B"/>
<path d="M89.888 192.581C94.6622 193.225 102.379 194.37 105.737 192.123C109.095 189.876 116.854 180.963 116.854 180.963L121.001 183.329C121.001 183.329 110.935 198.737 108.086 199.924C105.237 201.112 88.582 201.078 88.582 201.078L89.888 192.581Z" fill="#224B73"/>
<path opacity="0.6" d="M120.976 183.329C120.976 183.329 110.91 198.737 108.061 199.916C106.509 200.569 100.853 200.857 96.0275 200.976C91.9995 201.095 88.5566 201.078 88.5566 201.078L89.5064 194.913L89.8626 192.581C94.6368 193.225 102.354 194.379 105.712 192.123C109.07 189.867 116.829 180.972 116.829 180.972L120.976 183.329Z" fill="white"/>
<path opacity="0.2" d="M96.0275 200.976C91.9995 201.095 88.5566 201.078 88.5566 201.078L89.5064 194.913C92.129 196.39 94.3639 198.468 96.0275 200.976Z" fill="black"/>
<path d="M65.9573 180.963C64.8323 181.563 63.8972 182.465 63.2574 183.568C62.6176 184.671 62.2986 185.93 62.3364 187.204C62.2685 191.885 59.75 198.593 60.4199 203.316C61.0898 208.04 66.0082 207.446 67.5685 201.493C69.1288 195.54 66.3559 191.648 66.9919 188.086C67.2266 186.984 67.6829 185.94 68.333 185.019C68.9831 184.097 69.8135 183.318 70.774 182.727L65.9573 180.963Z" fill="#263238"/>
<path d="M112.589 347.909L107.891 348.74L105.966 342.338L104.211 336.452L109.63 334.561L111.198 341.634L112.589 347.909Z" fill="#E4897B"/>
<path opacity="0.2" d="M111.225 341.778L105.993 342.465L104.221 336.52L109.631 334.595L111.225 341.778Z" fill="black"/>
<path d="M81.2218 350.08H76.456L75.6674 343.355L74.9551 337.224L80.6197 336.283L80.942 343.584L81.2218 350.08Z" fill="#E4897B"/>
<path opacity="0.2" d="M80.942 343.643L75.6674 343.415L74.9551 337.25L80.6197 336.3L80.942 343.643Z" fill="black"/>
<path d="M111.665 338.047L103.94 339.412C96.1469 319.993 90.601 303.796 86.6917 290.321C84.5802 283.062 82.8164 276.609 81.6037 270.885L81.8327 292.026V339.649H74.2007C55.1207 248.769 68.6378 228.053 68.6378 228.053L91.466 224.254C92.3681 228.484 93.0082 232.766 93.3824 237.075L94.4085 244.648L103.329 290.745L111.665 338.047Z" fill="#263238"/>
<path d="M75.3361 346.832C75.3361 346.332 81.4672 346.722 81.4672 346.722C81.4672 346.722 85.2323 350.555 88.8957 351.42C92.559 352.285 90.5069 354.472 86.4195 354.472H76.3198C73.4027 354.464 75.2174 351.988 75.3361 346.832Z" fill="#263238"/>
<path d="M84.69 348.282C83.8036 348.174 82.9427 347.913 82.146 347.51C82.123 347.501 82.1027 347.487 82.0866 347.468C82.0701 347.427 82.0701 347.382 82.0866 347.341C82.0866 347.281 82.6208 345.857 83.4519 345.509C83.5771 345.452 83.713 345.423 83.8504 345.423C83.9879 345.423 84.1238 345.452 84.249 345.509C84.5204 345.645 84.656 345.814 84.6476 346.026C84.6391 346.238 84.1896 346.671 83.6978 346.934C84.161 346.857 84.6365 346.91 85.0716 347.086C85.1511 347.129 85.2209 347.189 85.2764 347.26C85.3318 347.332 85.3718 347.414 85.3938 347.502C85.4393 347.612 85.45 347.734 85.4242 347.851C85.3984 347.968 85.3375 348.074 85.2496 348.155C85.0835 348.261 84.8856 348.306 84.69 348.282ZM82.7141 347.434C83.613 347.816 84.7323 348.155 85.0291 347.917C85.0291 347.917 85.1309 347.833 85.0291 347.587C85.017 347.542 84.9957 347.499 84.9665 347.463C84.9373 347.426 84.9009 347.396 84.8596 347.375C84.1546 347.191 83.4128 347.202 82.7141 347.409V347.434ZM83.808 345.738C83.7235 345.738 83.6399 345.756 83.5621 345.789C83.0795 346.103 82.7108 346.564 82.5106 347.103C83.418 346.764 84.2914 346.255 84.3084 346.009C84.3084 345.925 84.1727 345.84 84.0879 345.806C84.0019 345.758 83.9064 345.729 83.808 345.721V345.738Z" fill="#224B73"/>
<path d="M106.629 346.832C106.629 346.332 112.76 346.722 112.76 346.722C112.76 346.722 116.525 350.555 120.18 351.42C123.835 352.285 121.799 354.472 117.703 354.472H107.595C104.687 354.464 106.501 351.988 106.629 346.832Z" fill="#263238"/>
<path d="M115.981 348.282C115.095 348.173 114.234 347.912 113.437 347.51L113.386 347.468C113.378 347.448 113.373 347.426 113.373 347.404C113.373 347.382 113.378 347.361 113.386 347.341C113.386 347.281 113.92 345.857 114.751 345.509C114.875 345.453 115.01 345.423 115.146 345.423C115.282 345.423 115.416 345.453 115.54 345.509C115.82 345.645 115.956 345.814 115.947 346.026C115.939 346.238 115.489 346.671 114.989 346.934C115.452 346.857 115.928 346.91 116.363 347.086C116.444 347.128 116.516 347.186 116.573 347.258C116.631 347.33 116.671 347.413 116.693 347.502C116.738 347.613 116.747 347.736 116.72 347.852C116.693 347.969 116.63 348.075 116.541 348.155C116.375 348.261 116.177 348.306 115.981 348.282ZM114.005 347.434C114.904 347.816 116.023 348.155 116.312 347.917C116.312 347.917 116.414 347.833 116.354 347.587C116.323 347.496 116.26 347.421 116.176 347.375C115.463 347.184 114.712 347.196 114.005 347.409V347.434ZM115.099 345.738C115.012 345.738 114.925 345.756 114.845 345.789C114.367 346.106 114.002 346.566 113.802 347.103C114.701 346.764 115.582 346.255 115.599 346.009C115.599 345.925 115.464 345.84 115.379 345.806C115.293 345.758 115.197 345.729 115.099 345.721V345.738Z" fill="#224B73"/>
<path opacity="0.2" d="M86.692 290.321C84.5805 283.062 82.9354 276.609 81.6719 270.885C81.7792 264.104 82.2719 257.335 83.1474 250.609C83.1474 250.609 86.497 276.762 86.692 290.321Z" fill="black"/>
<path d="M75.3633 231.767L87.337 230.707V226.823L75.3633 227.858V231.767Z" fill="black"/>
<path d="M74.3102 227.951L68.2979 228.468L67.7637 232.445L74.3102 231.86V227.951Z" fill="black"/>
<path d="M88.252 226.747V230.631L90.9401 230.393V226.518L88.252 226.747Z" fill="black"/>
<path d="M84.1735 227.188C84.0299 227.057 83.861 226.957 83.6771 226.894C83.4933 226.832 83.2986 226.807 83.105 226.823L80.2727 227.069C79.9225 227.099 79.5964 227.259 79.3592 227.518C79.1219 227.778 78.9909 228.117 78.9922 228.468V230.274C78.9923 230.469 79.0331 230.662 79.1119 230.84C79.1908 231.018 79.306 231.178 79.4501 231.309C79.7066 231.551 80.047 231.685 80.3999 231.682H80.561L83.3933 231.436C83.7435 231.406 84.0696 231.246 84.3068 230.987C84.5441 230.727 84.6751 230.388 84.6738 230.037V228.239C84.6686 228.039 84.6214 227.841 84.5353 227.66C84.4491 227.479 84.3258 227.318 84.1735 227.188ZM83.2831 230.707L80.4592 230.953C80.364 230.962 80.2677 230.951 80.177 230.921C80.0863 230.89 80.0033 230.84 79.9335 230.775C79.8644 230.711 79.8092 230.633 79.7713 230.547C79.7334 230.461 79.7135 230.368 79.713 230.274V228.468C79.7145 228.297 79.7796 228.133 79.8956 228.008C80.0116 227.882 80.1703 227.804 80.3405 227.79L83.1644 227.552H83.2237C83.3928 227.555 83.5553 227.618 83.6816 227.73C83.7517 227.795 83.8075 227.874 83.8455 227.962C83.8835 228.049 83.9027 228.144 83.9021 228.239V228.511H83.7919L83.0032 228.57C82.8764 228.581 82.759 228.641 82.6765 228.738C82.5939 228.835 82.5529 228.96 82.5623 229.087C82.5665 229.15 82.5834 229.212 82.6119 229.269C82.6403 229.325 82.6798 229.376 82.728 229.417C82.7762 229.458 82.8321 229.489 82.8925 229.508C82.9529 229.527 83.0165 229.534 83.0796 229.528L83.8682 229.469V230.062C83.8617 230.221 83.7996 230.373 83.6926 230.491C83.5857 230.609 83.4407 230.685 83.2831 230.707Z" fill="white"/>
<path d="M63.8051 204.453C64.6531 207.251 65.3485 209.676 65.8912 211.839C67.2728 217.283 68.08 222.856 68.2995 228.468L90.9411 226.518C91.8485 210.567 91.4499 201.799 91.0344 197.414C90.585 192.742 89.8642 192.572 89.8642 192.572C89.8642 192.572 84.7762 192.08 80.392 192.114C76.9789 192.228 73.5783 192.585 70.216 193.183C67.7794 193.588 65.3673 194.128 62.991 194.803C62.7076 194.881 62.4434 195.017 62.215 195.202C61.9866 195.387 61.7988 195.618 61.6635 195.879C61.5282 196.14 61.4482 196.426 61.4286 196.719C61.409 197.013 61.4501 197.307 61.5494 197.584C61.7954 198.305 62.0243 198.992 62.2448 199.67C62.8214 201.349 63.3302 202.96 63.8051 204.453Z" fill="#224B73"/>
<path opacity="0.6" d="M61.5489 197.584C61.7948 198.296 62.0237 198.992 62.2442 199.67C62.3121 199.857 62.3714 200.043 62.4392 200.221C62.6936 201.069 62.9565 201.841 63.2024 202.596L63.7876 204.47C64.4236 206.496 64.9578 208.32 65.3988 209.99C65.5599 210.635 65.721 211.262 65.8736 211.864L66.0772 212.661C66.9164 216.042 67.5059 219.48 67.841 222.948C68.0276 224.737 68.1548 226.526 68.282 228.468L90.9236 226.526C91.8309 210.567 91.4239 201.807 91.0084 197.423C90.5504 192.75 89.8381 192.581 89.8381 192.581C89.8381 192.581 85.8271 192.182 81.833 192.131H80.3914C79.9844 192.131 79.5434 192.131 79.1533 192.191C78.7632 192.25 78.1188 192.242 77.6015 192.284C75.2193 192.439 72.8471 192.722 70.4952 193.132L70.2324 193.174L68.7992 193.429C66.8488 193.802 64.9154 194.277 62.9989 194.794C62.7144 194.873 62.4492 195.009 62.2198 195.194C61.9904 195.38 61.8017 195.611 61.6656 195.873C61.5295 196.135 61.4489 196.422 61.4288 196.716C61.4087 197.011 61.4496 197.306 61.5489 197.584Z" fill="white"/>
<path d="M77.652 196.948C72.369 196.27 70.7832 194.014 70.7832 194.014C74.1752 190.851 71.3514 185.373 71.3514 185.373L77.7114 186.56C77.563 187.446 77.4808 188.342 77.4654 189.24C77.4146 193.098 79.1614 193.132 79.1614 193.132C80.2723 195.227 77.652 196.948 77.652 196.948Z" fill="#E4897B"/>
<path opacity="0.2" d="M77.7116 186.56C77.5632 187.446 77.481 188.342 77.4656 189.24C76.193 189.204 74.9535 188.826 73.8775 188.146C72.8015 187.465 71.9289 186.507 71.3516 185.373L77.7116 186.56Z" fill="black"/>
<path d="M92.7389 227.951L82.5629 229.07L81.4266 225.203L81.0196 229.07L67.0021 229.8L67.3074 224.033L67.5194 220.039L67.4007 219.691L66.3831 216.774L64.7889 212.178L64.0341 205.089L62.8809 194.379L65.2298 193.802L67.5618 193.242L69.2833 192.835L79.4338 201.722L81.0196 191.165L82.6138 191.36L85.1578 191.657L88.8297 192.106L92.298 205.462L91.7722 217.139L91.5687 221.71L91.4924 223.448L92.7389 227.951Z" fill="#224B73"/>
<path opacity="0.7" d="M91.7722 217.139L91.5687 221.718L67.3074 224.025L67.5194 220.039L67.4007 219.7L74.4391 218.962C74.2525 215.799 73.6759 210.304 71.8951 206.081C69.9729 201.837 67.7482 197.736 65.2383 193.81L67.5703 193.251C70.027 196.534 72.0241 200.137 73.5063 203.961C75.0966 208.775 76.3991 213.679 77.4071 218.648L87.0404 217.639C87.4074 213.138 87.3079 208.611 86.7436 204.13C86.0821 199.823 84.03 194.582 82.6308 191.36L85.1748 191.665C86.7181 194.989 88.694 199.916 89.084 204.088C89.4456 208.514 89.5164 212.958 89.296 217.393L91.7722 217.139Z" fill="white"/>
<path opacity="0.2" d="M66.3822 216.783L64.7879 212.178L64.0332 205.097C64.4205 204.956 64.8211 204.854 65.2289 204.792C65.2289 204.792 67.9764 211.873 66.3822 216.783Z" fill="black"/>
<path d="M82.2573 175.85C82.2573 175.85 84.8946 165.894 75.4733 165.292C63.33 164.529 59.5818 182.083 71.4368 184.711C83.2919 187.34 82.2573 175.85 82.2573 175.85Z" fill="#263238"/>
<path d="M82.2568 184.016C82.206 184.202 82.1551 184.389 82.1042 184.559C81.8039 185.662 81.1357 186.629 80.2102 187.3C79.2848 187.971 78.1578 188.305 77.0162 188.247C76.6115 188.262 76.2062 188.248 75.8036 188.205L74.9556 188.095C65.4749 186.56 65.0085 169.278 74.2008 168.752C79.7213 168.447 81.6632 171.296 82.384 176.986C82.7679 179.318 82.7248 181.7 82.2568 184.016Z" fill="#E4897B"/>
<path d="M78.7891 176.893C79.266 177.692 79.8353 178.432 80.4851 179.098C80.3358 179.335 80.1237 179.527 79.8722 179.651C79.6207 179.775 79.3397 179.827 79.0604 179.801L78.7891 176.893Z" fill="#DE5753"/>
<path d="M75.3786 176.63C75.3786 177.079 75.2005 177.478 74.8953 177.478C74.59 177.478 74.3186 177.147 74.2847 176.698C74.2508 176.248 74.4713 175.85 74.7681 175.85C75.0649 175.85 75.3447 176.172 75.3786 176.63Z" fill="#263238"/>
<path d="M74.625 175.884L75.5748 175.417C75.5748 175.417 75.1762 176.282 74.625 175.884Z" fill="#263238"/>
<path d="M81.0196 176.087C81.0196 176.545 80.833 176.935 80.5362 176.935C80.2394 176.935 79.9596 176.613 79.9172 176.164C79.8748 175.714 80.1037 175.316 80.4005 175.316C80.6973 175.316 80.9772 175.638 81.0196 176.087Z" fill="#263238"/>
<path d="M80.2812 175.341L81.231 174.883C81.231 174.883 80.807 175.748 80.2812 175.341Z" fill="#263238"/>
<path d="M75.1165 172.814C74.6771 172.784 74.2368 172.856 73.8295 173.024C73.4222 173.191 73.0589 173.45 72.7676 173.781" stroke="#263238" stroke-width="0.72468" stroke-linecap="round" stroke-linejoin="round"/>
<path d="M79.127 172.356C79.4985 172.239 79.8921 172.208 80.2773 172.267C80.6625 172.326 81.0291 172.472 81.3487 172.695" stroke="#263238" stroke-width="0.72468" stroke-linecap="round" stroke-linejoin="round"/>
<path d="M68.6894 178.419C68.6894 178.419 71.0214 173.738 70.4448 170.253C70.4448 170.253 81.155 165.165 82.3168 176.265C82.3168 176.265 82.851 166.335 73.328 166.632C63.805 166.929 64.619 180.836 69.7494 184.711C69.707 184.711 67.2224 181.353 68.6894 178.419Z" fill="#263238"/>
<path d="M69.6302 179.538C69.5418 178.902 69.2047 178.327 68.6928 177.939C68.1809 177.551 67.536 177.382 66.8997 177.469C65.2037 177.749 64.5677 181.311 68.8755 181.921C69.537 182.006 69.8083 181.396 69.6302 179.538Z" fill="#E4897B"/>
<path d="M76.1602 180.819C76.3476 181.37 76.7009 181.849 77.1716 182.19C77.6424 182.532 78.2074 182.719 78.789 182.727" stroke="#263238" stroke-width="0.5" stroke-linecap="round" stroke-linejoin="round"/>
<path d="M78.016 177.147C78.0176 177.597 77.8856 178.038 77.6365 178.413C77.3874 178.788 77.0326 179.081 76.617 179.254C76.2013 179.427 75.7437 179.473 75.3021 179.385C74.8604 179.298 74.4547 179.081 74.1363 178.763C73.818 178.444 73.6014 178.039 73.514 177.597C73.4265 177.155 73.4723 176.698 73.6453 176.282C73.8184 175.866 74.111 175.512 74.486 175.263C74.861 175.013 75.3016 174.881 75.7518 174.883C76.3523 174.883 76.9282 175.122 77.3528 175.546C77.7774 175.971 78.016 176.547 78.016 177.147Z" stroke="#263238" stroke-width="0.5" stroke-linecap="round" stroke-linejoin="round"/>
<path d="M83.9521 176.24C83.9505 176.687 83.8162 177.124 83.5664 177.495C83.3166 177.867 82.9624 178.156 82.5486 178.326C82.1347 178.496 81.6797 178.539 81.2411 178.451C80.8024 178.363 80.3998 178.146 80.084 177.829C79.7682 177.512 79.5534 177.109 79.4667 176.67C79.38 176.231 79.4254 175.776 79.597 175.363C79.7686 174.95 80.0588 174.597 80.431 174.348C80.8031 174.1 81.2405 173.967 81.688 173.967C81.9863 173.966 82.282 174.024 82.5577 174.138C82.8335 174.252 83.0839 174.419 83.2945 174.631C83.5051 174.842 83.6716 175.093 83.7845 175.369C83.8974 175.646 83.9544 175.941 83.9521 176.24Z" stroke="#263238" stroke-width="0.5" stroke-linecap="round" stroke-linejoin="round"/>
<path d="M78.0176 176.672C78.0176 176.672 78.8656 175.706 79.4931 176.469" stroke="#263238" stroke-width="0.5" stroke-linecap="round" stroke-linejoin="round"/>
<path d="M73.4882 177.147L68.502 177.495" stroke="#263238" stroke-width="0.5" stroke-linecap="round" stroke-linejoin="round"/>
<path d="M72.1488 165.877C74.5563 165.8 76.9478 166.294 79.1278 167.319C82.1382 168.956 82.2824 171.466 82.2824 171.466L81.2308 171.076L79.1278 169.38C79.4078 169.901 79.5536 170.484 79.5518 171.076C79.5518 171.076 78.8649 169.702 78.0169 169.473C78.1323 169.818 78.1466 170.189 78.0579 170.542C77.9693 170.895 77.7814 171.216 77.5166 171.466C77.327 170.747 76.8958 170.115 76.2955 169.676C76.2955 169.676 76.4566 170.465 74.8793 171.466C74.9005 171.094 74.8296 170.723 74.6727 170.386C74.5159 170.049 74.2781 169.755 73.9804 169.532C73.9804 169.532 73.2257 170.965 72.1912 171.177C72.1912 171.177 72.9628 170.465 72.8102 170.032C71.9474 170.808 70.8724 171.307 69.7235 171.466C67.9596 171.61 65.6616 167.955 72.1488 165.877Z" fill="#263238"/>
<path d="M66.9922 171.788C66.9922 171.788 70.6131 186.959 78.2197 188.536L79.7122 188.086C79.7122 188.086 75.6672 188.154 72.8434 183.626C70.0195 179.098 68.0946 171.55 68.0946 171.55L66.9922 171.788Z" fill="black"/>
<path d="M84.3427 169.04C80.5606 173.713 70.6306 170.304 67.1198 172.992C63.6091 175.68 64.1688 178.08 64.1688 178.122C61.7181 178.877 63.0494 174.849 63.0494 174.849C60.4546 166.954 65.2542 162.4 72.6234 161.535C79.5261 160.687 81.4256 167.675 81.4256 167.675L84.3427 169.04Z" fill="#224B73"/>
<path opacity="0.2" d="M81.408 167.633C79.8562 170.389 70.1466 169.676 66.5171 170.897C62.8877 172.118 63.0319 174.807 63.0319 174.807C60.437 166.912 65.2367 162.358 72.6058 161.493C79.5255 160.679 81.408 167.633 81.408 167.633Z" fill="black"/>
<path d="M67.5268 163.316C70.4608 162.248 73.7341 164.732 75.0146 166.539C76.2951 168.345 78.9663 167.675 79.0172 165.691C79.068 163.706 77.2194 159.865 77.2194 159.865C77.2194 159.865 65.0676 159.644 63.4648 166.454C64.4058 164.961 65.8447 163.85 67.5268 163.316Z" fill="#224B73"/>
<path d="M76.498 188.595C77.0922 187.959 77.8679 187.52 78.7198 187.34C79.3348 187.163 79.9874 187.163 80.6024 187.34C80.4101 187.692 80.1462 188 79.8279 188.244C79.5095 188.488 79.1436 188.662 78.7537 188.756C78.394 188.919 77.9993 188.99 77.6055 188.962C77.2116 188.933 76.831 188.807 76.498 188.595Z" fill="#263238"/>
<path d="M71.0386 192.123L75.3888 194.217L77.4749 196.151L77.9752 194.133L77.7123 190.783L81.1552 192.123L82.283 196.482L80.2394 195.311L78.713 199.925L74.3118 196.948L73.3451 198.831L69.2832 193.802L71.0386 192.123Z" fill="#224B73"/>
<path opacity="0.5" d="M69.2832 193.802L73.3451 198.831L74.3118 196.948L78.713 199.925L80.2394 195.311L82.283 196.482L81.1552 192.123L77.7123 190.783L77.9752 194.133L77.4749 196.151L75.3888 194.217L71.0386 192.123L69.2832 193.802Z" fill="white"/>
<path opacity="0.2" d="M73.3438 198.831L74.3105 196.948L78.7116 199.924L74.531 195.354L73.3438 198.831Z" fill="black"/>
<path opacity="0.2" d="M78.7129 199.924L80.2393 195.311L82.283 196.482L79.9086 193.581L78.7129 199.924Z" fill="black"/>
<path d="M89.3969 211.152C89.3969 211.152 88.5998 223.821 99.9291 223.024C109.834 222.363 119.933 188.655 122.299 180.234C122.453 179.69 122.781 179.211 123.233 178.871C123.685 178.531 124.235 178.349 124.801 178.351H126.353" stroke="#263238" stroke-miterlimit="10"/>
<path d="M91.4915 212.161H80.459L82.2567 194.904H93.2977L91.4915 212.161Z" fill="#263238"/>
<path opacity="0.2" d="M82.9351 212.161H80.459L82.2567 194.904H84.7329L82.9351 212.161Z" fill="white"/>
<path d="M127.252 178.402C127.253 178.584 127.201 178.762 127.101 178.913C127.002 179.065 126.859 179.184 126.692 179.254C126.525 179.325 126.341 179.344 126.162 179.31C125.984 179.276 125.82 179.189 125.691 179.061C125.562 178.934 125.474 178.77 125.438 178.593C125.402 178.415 125.42 178.23 125.489 178.062C125.558 177.894 125.675 177.751 125.826 177.65C125.977 177.549 126.154 177.495 126.336 177.495C126.577 177.495 126.809 177.59 126.98 177.76C127.152 177.93 127.249 178.161 127.252 178.402Z" fill="#263238"/>
<path d="M74.5312 213.518L78.0165 211.152C78.0165 211.152 78.2031 209.202 78.5847 208.803C78.9663 208.404 84.7073 206.692 85.8945 206.793C87.0817 206.895 87.2937 211.152 86.1743 212.271C85.0549 213.391 80.4757 214.34 80.1365 213.967L76.4986 216.24L74.5312 213.518Z" fill="#E4897B"/>
<path d="M61.8538 195.634C58.5975 197.372 54.7391 222.023 59.5981 226.009C64.4572 229.994 78.7121 215.646 78.7121 215.646L76.3546 210.558C76.3546 210.558 67.6457 217.911 65.4239 216.664C63.2021 215.417 65.4239 208.447 65.4239 208.447C65.7813 206.046 65.7813 203.606 65.4239 201.205C65.248 200.079 64.8398 199.003 64.2251 198.044C63.6105 197.084 62.8029 196.264 61.8538 195.634Z" fill="#224B73"/>
<path opacity="0.6" d="M61.8538 195.634C58.5975 197.372 54.7391 222.023 59.5981 226.009C64.4572 229.994 78.7121 215.646 78.7121 215.646L76.3546 210.558C76.3546 210.558 67.6457 217.911 65.4239 216.664C63.2021 215.417 65.4239 208.447 65.4239 208.447C65.7813 206.046 65.7813 203.606 65.4239 201.205C65.248 200.079 64.8398 199.003 64.2251 198.044C63.6105 197.084 62.8029 196.264 61.8538 195.634Z" fill="white"/>
<path d="M359.008 256.181C359.008 269.299 355.404 279.925 350.96 279.925H248.581C244.129 279.925 240.525 269.282 240.525 256.181C240.525 243.079 244.129 232.437 248.581 232.437H350.96C355.404 232.42 359.008 243.054 359.008 256.181Z" fill="#224B73"/>
<path opacity="0.4" d="M359.008 256.181C359.008 269.299 355.404 279.925 350.96 279.925H248.581C244.129 279.925 240.525 269.282 240.525 256.181C240.525 243.079 244.129 232.437 248.581 232.437H350.96C355.404 232.42 359.008 243.054 359.008 256.181Z" fill="white"/>
<path d="M257.367 230.13H248.887C243.672 230.13 239.449 241.705 239.449 255.994C239.449 270.283 243.689 281.85 248.887 281.85H257.367C262.574 281.85 266.797 270.275 266.797 255.994C266.797 241.714 262.574 230.13 257.367 230.13Z" fill="#224B73"/>
<path opacity="0.4" d="M248.887 281.85C254.095 281.85 258.317 270.274 258.317 255.994C258.317 241.715 254.095 230.139 248.887 230.139C243.679 230.139 239.457 241.715 239.457 255.994C239.457 270.274 243.679 281.85 248.887 281.85Z" fill="white"/>
<path opacity="0.2" d="M257.367 230.13H248.887C243.672 230.13 239.449 241.705 239.449 255.994C239.449 270.283 243.689 281.85 248.887 281.85H257.367C262.574 281.85 266.797 270.275 266.797 255.994C266.797 241.714 262.574 230.13 257.367 230.13Z" fill="white"/>
<path d="M247.192 230.13H238.712C233.496 230.13 229.273 241.705 229.273 255.994C229.273 270.283 233.513 281.85 238.712 281.85H247.192C252.398 281.85 256.621 270.275 256.621 255.994C256.621 241.714 252.398 230.13 247.192 230.13Z" fill="#224B73"/>
<path opacity="0.4" d="M238.711 281.85C243.919 281.85 248.141 270.274 248.141 255.994C248.141 241.715 243.919 230.139 238.711 230.139C233.503 230.139 229.281 241.715 229.281 255.994C229.281 270.274 233.503 281.85 238.711 281.85Z" fill="white"/>
<path opacity="0.2" d="M247.192 230.13H238.712C233.496 230.13 229.273 241.705 229.273 255.994C229.273 270.283 233.513 281.85 238.712 281.85H247.192C252.398 281.85 256.621 270.275 256.621 255.994C256.621 241.714 252.398 230.13 247.192 230.13Z" fill="white"/>
<path d="M244.529 256.181C244.529 269.299 240.925 279.925 236.481 279.925H159.542C155.09 279.925 151.486 269.282 151.486 256.181C151.486 243.079 155.09 232.437 159.542 232.437H236.481C240.925 232.42 244.529 243.054 244.529 256.181Z" fill="#224B73"/>
<path opacity="0.4" d="M244.529 256.181C244.529 269.299 240.925 279.925 236.481 279.925H159.542C155.09 279.925 151.486 269.282 151.486 256.181C151.486 243.079 155.09 232.437 159.542 232.437H236.481C240.925 232.42 244.529 243.054 244.529 256.181Z" fill="white"/>
<path d="M180.199 230.13H171.719C166.504 230.13 162.281 241.705 162.281 255.994C162.281 270.283 166.521 281.85 171.719 281.85H180.199C185.406 281.85 189.629 270.275 189.629 255.994C189.629 241.714 185.406 230.13 180.199 230.13Z" fill="#224B73"/>
<path opacity="0.4" d="M171.719 281.85C176.927 281.85 181.149 270.274 181.149 255.994C181.149 241.715 176.927 230.139 171.719 230.139C166.511 230.139 162.289 241.715 162.289 255.994C162.289 270.274 166.511 281.85 171.719 281.85Z" fill="white"/>
<path opacity="0.2" d="M180.199 230.13H171.719C166.504 230.13 162.281 241.705 162.281 255.994C162.281 270.283 166.521 281.85 171.719 281.85H180.199C185.406 281.85 189.629 270.275 189.629 255.994C189.629 241.714 185.406 230.13 180.199 230.13Z" fill="white"/>
<path d="M170.338 232.42H126.793V279.908H170.338C174.781 279.908 178.385 269.266 178.385 256.164C178.385 243.062 174.781 232.42 170.338 232.42Z" fill="#224B73"/>
<path opacity="0.4" d="M170.338 232.42H126.793V279.908H170.338C174.781 279.908 178.385 269.266 178.385 256.164C178.385 243.062 174.781 232.42 170.338 232.42Z" fill="white"/>
<path d="M164.35 98.7496H116.828V354.159H164.35V98.7496Z" fill="#224B73"/>
<path opacity="0.4" d="M164.35 98.7496H116.828V354.159H164.35V98.7496Z" fill="white"/>
<path d="M164.969 291.983H116.209C115.553 291.983 115.021 292.515 115.021 293.171V299.853C115.021 300.509 115.553 301.04 116.209 301.04H164.969C165.624 301.04 166.156 300.509 166.156 299.853V293.171C166.156 292.515 165.624 291.983 164.969 291.983Z" fill="#224B73"/>
<path d="M164.969 214.815H116.209C115.553 214.815 115.021 215.347 115.021 216.003V222.685C115.021 223.341 115.553 223.872 116.209 223.872H164.969C165.624 223.872 166.156 223.341 166.156 222.685V216.003C166.156 215.347 165.624 214.815 164.969 214.815Z" fill="#224B73"/>
<path d="M168.701 354.464H112.479L115.023 351.53H166.157L168.701 354.464Z" fill="#224B73"/>
<path d="M164.969 165.631H116.209C115.553 165.631 115.021 166.163 115.021 166.819V181.981C115.021 182.636 115.553 183.168 116.209 183.168H164.969C165.624 183.168 166.156 182.636 166.156 181.981V166.819C166.156 166.163 165.624 165.631 164.969 165.631Z" fill="#224B73"/>
<path opacity="0.2" d="M164.969 291.983H116.209C115.553 291.983 115.021 292.515 115.021 293.171V299.853C115.021 300.509 115.553 301.04 116.209 301.04H164.969C165.624 301.04 166.156 300.509 166.156 299.853V293.171C166.156 292.515 165.624 291.983 164.969 291.983Z" fill="white"/>
<path opacity="0.2" d="M164.969 214.815H116.209C115.553 214.815 115.021 215.347 115.021 216.003V222.685C115.021 223.341 115.553 223.872 116.209 223.872H164.969C165.624 223.872 166.156 223.341 166.156 222.685V216.003C166.156 215.347 165.624 214.815 164.969 214.815Z" fill="white"/>
<path opacity="0.2" d="M164.969 165.631H116.209C115.553 165.631 115.021 166.163 115.021 166.819V181.981C115.021 182.636 115.553 183.168 116.209 183.168H164.969C165.624 183.168 166.156 182.636 166.156 181.981V166.819C166.156 166.163 165.624 165.631 164.969 165.631Z" fill="white"/>
<path d="M116.81 168.167H114.767C113.512 168.167 112.494 170.957 112.494 174.4C112.494 177.843 113.512 180.632 114.767 180.632H116.81C118.074 180.632 119.092 177.843 119.092 174.4C119.092 170.957 118.074 168.167 116.81 168.167Z" fill="#224B73"/>
<path opacity="0.4" d="M114.767 180.632C116.022 180.632 117.039 177.842 117.039 174.4C117.039 170.957 116.022 168.167 114.767 168.167C113.512 168.167 112.494 170.957 112.494 174.4C112.494 177.842 113.512 180.632 114.767 180.632Z" fill="white"/>
<path opacity="0.1" d="M116.81 168.167H114.767C113.512 168.167 112.494 170.957 112.494 174.4C112.494 177.843 113.512 180.632 114.767 180.632H116.81C118.074 180.632 119.092 177.843 119.092 174.4C119.092 170.957 118.074 168.167 116.81 168.167Z" fill="white"/>
<path d="M113.632 172.441H103.846C103.202 172.441 102.676 173.289 102.676 174.4C102.676 175.511 103.202 176.359 103.846 176.359H113.632C114.276 176.359 114.794 175.511 114.794 174.4C114.794 173.289 114.251 172.441 113.632 172.441Z" fill="#224B73"/>
<path opacity="0.4" d="M105.008 174.4C105.008 175.477 104.49 176.359 103.846 176.359C103.202 176.359 102.676 175.511 102.676 174.4C102.676 173.289 103.202 172.441 103.846 172.441C104.49 172.441 105.008 173.323 105.008 174.4Z" fill="white"/>
<path opacity="0.1" d="M113.632 172.441H103.846C103.202 172.441 102.676 173.289 102.676 174.4C102.676 175.511 103.202 176.359 103.846 176.359H113.632C114.276 176.359 114.794 175.511 114.794 174.4C114.794 173.289 114.251 172.441 113.632 172.441Z" fill="white"/>
<path d="M101.903 169.066H105.448C107.627 169.066 109.391 171.457 109.391 174.4C109.391 177.342 107.627 179.734 105.448 179.734H101.903C99.7326 179.734 97.9688 177.342 97.9688 174.4C97.9688 171.457 99.7326 169.066 101.903 169.066Z" fill="#224B73"/>
<path opacity="0.1" d="M101.903 169.066H105.448C107.627 169.066 109.391 171.457 109.391 174.4C109.391 177.342 107.627 179.734 105.448 179.734H101.903C99.7326 179.734 97.9688 177.342 97.9688 174.4C97.9688 171.457 99.7326 169.066 101.903 169.066Z" fill="white"/>
<path opacity="0.2" d="M101.506 174.4C101.506 177.342 103.27 179.734 105.449 179.734C107.628 179.734 109.392 177.342 109.392 174.4C109.392 171.457 107.628 169.066 105.449 169.066C103.27 169.066 101.506 171.457 101.506 174.4Z" fill="black"/>
<path d="M257.63 260.802H259.003C261.615 260.802 263.727 257.885 263.727 254.281C263.727 250.677 261.615 247.76 259.003 247.76H257.63C255.018 247.76 252.906 250.686 252.906 254.281C252.906 257.877 255.018 260.802 257.63 260.802Z" fill="#224B73"/>
<path opacity="0.4" d="M254.281 254.281C254.281 250.686 256.401 247.76 259.005 247.76C261.608 247.76 263.728 250.686 263.728 254.281C263.728 257.877 261.616 260.802 259.005 260.802C256.393 260.802 254.281 257.885 254.281 254.281Z" fill="white"/>
<path opacity="0.2" d="M257.63 260.802H259.003C261.615 260.802 263.727 257.885 263.727 254.281C263.727 250.677 261.615 247.76 259.003 247.76H257.63C255.018 247.76 252.906 250.686 252.906 254.281C252.906 257.877 255.018 260.802 257.63 260.802Z" fill="white"/>
<path d="M260.555 241.612C255.594 241.612 251.566 247.438 251.566 254.621C251.566 261.803 255.594 267.637 260.555 267.637C265.516 267.637 269.544 261.812 269.544 254.621C269.544 247.429 265.524 241.612 260.555 241.612ZM256.943 254.281H253.305C253.334 252.072 253.838 249.894 254.78 247.896L257.418 252.721C257.145 253.199 256.983 253.732 256.943 254.281ZM256.943 255.129C256.996 255.623 257.152 256.099 257.401 256.529L254.763 261.354C253.842 259.405 253.339 257.284 253.288 255.129H256.943ZM260.92 255.129H267.84C267.791 257.308 267.283 259.453 266.347 261.421L260.767 255.859C260.838 255.621 260.886 255.376 260.911 255.129H260.92ZM260.92 254.281C260.896 253.994 260.842 253.709 260.759 253.433L266.339 247.862C267.299 249.88 267.811 252.081 267.84 254.315L260.92 254.281ZM265.915 247.056L260.335 252.577C260.164 252.317 259.942 252.095 259.682 251.924L260.886 243.376C262.879 243.478 264.643 244.894 265.915 247.056ZM260.029 243.376L258.893 251.72C258.563 251.735 258.245 251.854 257.986 252.06L255.247 247.005C256.459 244.945 258.155 243.571 260.029 243.376ZM255.247 262.244L258.003 257.215C258.26 257.42 258.574 257.538 258.902 257.555L260.021 265.899C258.147 265.67 256.451 264.296 255.247 262.244ZM260.886 265.916L259.733 257.326C259.993 257.155 260.215 256.933 260.386 256.673L265.932 262.193C264.634 264.364 262.879 265.789 260.869 265.916H260.886Z" fill="#224B73"/>
<path d="M278.017 249.88L273.43 247.455C272.785 246.599 272.236 245.674 271.793 244.699C271.555 243.851 268.401 240.84 267.163 241.188C265.925 241.536 262.863 247.124 264.017 247.896C265.705 248.813 267.484 249.552 269.325 250.101C269.974 250.161 270.627 250.161 271.276 250.101L275.516 253.493L278.017 249.88Z" fill="#263238"/>
<path d="M303.416 247.811C303.416 247.811 288.847 253.247 287.21 253.289C285.574 253.331 274.753 246.946 274.753 246.946L271.361 251.491C271.361 251.491 281.122 260.039 283.471 261.862C285.82 263.686 305.578 259.242 305.578 259.242C306.12 257.299 306.206 255.256 305.831 253.274C305.456 251.292 304.63 249.422 303.416 247.811Z" fill="#263238"/>
<path opacity="0.3" d="M303.416 247.811C303.416 247.811 288.847 253.247 287.21 253.289C285.574 253.331 274.753 246.946 274.753 246.946L271.361 251.491C271.361 251.491 281.122 260.039 283.471 261.862C285.82 263.686 305.578 259.242 305.578 259.242C306.12 257.299 306.206 255.256 305.831 253.274C305.456 251.292 304.63 249.422 303.416 247.811Z" fill="white"/>
<path d="M290.509 349.673L284.776 350.877L278.662 340.82L284.386 339.607L290.509 349.673Z" fill="#E4897B"/>
<path d="M283.622 348.452H290.016C290.121 348.453 290.223 348.49 290.305 348.556C290.386 348.622 290.443 348.714 290.466 348.816L291.509 353.514C291.531 353.614 291.533 353.718 291.515 353.819C291.497 353.92 291.458 354.017 291.402 354.103C291.346 354.189 291.273 354.263 291.188 354.321C291.103 354.378 291.008 354.418 290.907 354.439C290.851 354.447 290.793 354.447 290.737 354.439C288.66 354.439 287.15 354.277 284.547 354.277C282.944 354.277 278.102 354.447 275.889 354.447C273.675 354.447 273.345 352.259 274.286 352.056C278.356 351.208 281.418 349.944 282.724 348.774C282.972 348.557 283.293 348.442 283.622 348.452Z" fill="#263238"/>
<path d="M281.876 349.376C281.518 349.402 281.163 349.306 280.867 349.105C280.768 349.026 280.692 348.922 280.646 348.805C280.599 348.687 280.585 348.56 280.604 348.435C280.599 348.362 280.617 348.29 280.655 348.228C280.693 348.165 280.749 348.116 280.816 348.087C281.401 347.782 283.105 348.833 283.292 348.935C283.316 348.943 283.336 348.959 283.349 348.981C283.361 349.003 283.365 349.029 283.36 349.054C283.354 349.079 283.341 349.103 283.323 349.122C283.305 349.142 283.283 349.156 283.258 349.164C282.806 349.281 282.342 349.352 281.876 349.376ZM281.096 348.282C281.044 348.262 280.986 348.262 280.934 348.282C280.934 348.282 280.858 348.324 280.85 348.426C280.84 348.509 280.851 348.593 280.88 348.671C280.91 348.75 280.957 348.82 281.019 348.876C281.612 349.147 282.285 349.18 282.902 348.969C282.35 348.627 281.736 348.397 281.096 348.291V348.282Z" fill="#224B73"/>
<path d="M283.233 349.198H283.174C282.631 348.901 281.579 347.739 281.69 347.18C281.706 347.086 281.755 347.001 281.828 346.941C281.901 346.88 281.993 346.848 282.088 346.849C282.184 346.836 282.281 346.844 282.373 346.872C282.465 346.9 282.55 346.947 282.622 347.01C283.233 347.51 283.36 349.028 283.369 349.096C283.369 349.12 283.363 349.144 283.351 349.165C283.339 349.186 283.322 349.203 283.301 349.215L283.233 349.198ZM282.173 347.052H282.114C281.953 347.052 281.944 347.146 281.936 347.18C281.868 347.519 282.538 348.401 283.08 348.808C283.044 348.21 282.829 347.636 282.461 347.163C282.379 347.091 282.274 347.052 282.165 347.052H282.173Z" fill="#224B73"/>
<path opacity="0.2" d="M284.386 339.607L278.662 340.82L281.817 346.009L287.549 344.797L284.386 339.607Z" fill="black"/>
<path d="M309.436 315.583C309.131 315.583 305.646 315.583 305.323 315.524C299.043 314.885 292.844 313.612 286.82 311.725C281.418 310.105 277.687 308.587 277.687 308.587C276.458 315.744 288.067 343.202 288.067 343.202L278.586 343.788C278.586 343.788 252.061 304.669 263.364 292.475C271.802 283.376 294.698 293.255 294.698 293.255L300.676 280.629L326.023 282.079C326.023 282.079 331.501 316.762 309.436 315.583Z" fill="#263238"/>
<path d="M279.027 344.915L288.483 343.398L287.575 340.828L277.289 342.974L279.027 344.915Z" fill="#224B73"/>
<path d="M354.728 338.937L355.228 344.195L343.093 345.772L342.602 340.514L354.728 338.937Z" fill="#E4897B"/>
<path d="M354.685 344.983L354.083 338.598C354.076 338.493 354.103 338.389 354.162 338.301C354.22 338.214 354.306 338.148 354.405 338.114L358.985 336.639C359.181 336.578 359.394 336.597 359.577 336.692C359.76 336.788 359.897 336.951 359.96 337.148C359.964 337.204 359.964 337.261 359.96 337.317C360.121 339.386 360.138 340.904 360.375 343.499C360.528 345.094 361.147 349.902 361.359 352.106C361.571 354.311 359.417 354.803 359.129 353.921C357.865 349.953 356.356 347.018 355.067 345.831C354.84 345.605 354.704 345.303 354.685 344.983Z" fill="#263238"/>
<path d="M355.771 346.628C355.835 346.983 355.775 347.348 355.601 347.663C355.531 347.768 355.435 347.853 355.322 347.909C355.209 347.966 355.083 347.992 354.957 347.985C354.885 347.996 354.812 347.985 354.747 347.953C354.681 347.921 354.627 347.87 354.592 347.807C354.236 347.256 355.118 345.458 355.22 345.263C355.228 345.241 355.243 345.222 355.263 345.208C355.283 345.194 355.306 345.187 355.33 345.187C355.356 345.186 355.382 345.194 355.404 345.209C355.425 345.224 355.441 345.246 355.449 345.272C355.606 345.711 355.714 346.166 355.771 346.628ZM354.753 347.519C354.753 347.574 354.771 347.627 354.804 347.672C354.804 347.672 354.855 347.739 354.957 347.739C355.041 347.742 355.124 347.724 355.199 347.687C355.274 347.65 355.34 347.595 355.389 347.527C355.603 346.916 355.576 346.245 355.313 345.653C355.008 346.233 354.818 346.867 354.753 347.519Z" fill="#224B73"/>
<path d="M355.456 345.306V345.365C355.21 345.933 354.15 347.061 353.591 347.061C353.497 347.053 353.408 347.012 353.341 346.945C353.275 346.879 353.234 346.79 353.226 346.696C353.203 346.603 353.201 346.506 353.22 346.412C353.239 346.319 353.279 346.23 353.336 346.154C353.769 345.492 355.27 345.229 355.346 345.212C355.369 345.21 355.391 345.214 355.412 345.223C355.433 345.232 355.451 345.245 355.465 345.263C355.465 345.278 355.462 345.292 355.456 345.306ZM353.421 346.561V346.62C353.421 346.781 353.531 346.79 353.565 346.79C353.913 346.79 354.727 346.077 355.083 345.492C354.488 345.586 353.935 345.858 353.497 346.272C353.439 346.357 353.412 346.458 353.421 346.561Z" fill="#224B73"/>
<path opacity="0.2" d="M342.609 340.514L343.101 345.772L349.359 344.958L348.859 339.692L342.609 340.514Z" fill="black"/>
<path d="M347.376 347.154C347.376 347.154 313.159 357.161 304.637 351.123C300.448 348.155 298.845 340.642 298.599 332.111C298.48 326.318 298.789 320.525 299.523 314.778C300.634 305.585 302.398 298.03 303.17 296.893C303.17 296.893 326.066 296.257 325.438 301.981C324.811 307.705 312.599 337.199 315.262 339.539C317.925 341.88 346.765 338.42 346.765 338.42L347.376 347.154Z" fill="#263238"/>
<path d="M345.578 337.741L346.282 348.291L348.928 347.621L347.732 337.182L345.578 337.741Z" fill="#224B73"/>
<path opacity="0.5" d="M279.027 344.915L288.483 343.398L287.575 340.828L277.289 342.974L279.027 344.915Z" fill="white"/>
<path opacity="0.5" d="M345.578 337.741L346.282 348.291L348.928 347.621L347.732 337.182L345.578 337.741Z" fill="white"/>
<path d="M289.499 235.244C289.626 235.659 289.439 236.092 289.168 236.092C288.897 236.092 288.591 235.854 288.498 235.439C288.405 235.023 288.558 234.591 288.829 234.591C289.1 234.591 289.414 234.845 289.499 235.244Z" fill="#263238"/>
<path d="M289.924 235.557C289.703 236.965 289.286 238.335 288.686 239.628C289.024 239.772 289.389 239.842 289.756 239.832C290.124 239.821 290.485 239.732 290.814 239.568L289.924 235.557Z" fill="#892B29"/>
<path d="M288.447 232.895C288.383 232.914 288.33 232.958 288.298 233.017C288.266 233.076 288.259 233.144 288.278 233.208C288.3 233.257 288.339 233.296 288.388 233.319C288.443 233.37 288.516 233.397 288.591 233.395C288.897 233.299 289.222 233.276 289.538 233.328C289.855 233.379 290.155 233.504 290.415 233.692C290.462 233.738 290.526 233.765 290.593 233.765C290.659 233.765 290.723 233.738 290.771 233.692C290.817 233.644 290.843 233.58 290.843 233.514C290.843 233.447 290.817 233.383 290.771 233.336C290.448 233.08 290.068 232.906 289.663 232.829C289.259 232.752 288.841 232.775 288.447 232.895Z" fill="#263238"/>
<path d="M291.239 241.468C291.375 241.705 291.519 241.934 291.671 242.155C292.55 243.416 293.788 244.382 295.225 244.928C295.587 245.071 295.962 245.182 296.344 245.258C297.344 245.49 298.384 245.494 299.386 245.271C300.388 245.048 301.328 244.603 302.136 243.97C302.859 243.392 303.462 242.677 303.908 241.866C305.833 238.474 304.926 235.413 303.815 230.113C303.578 228.868 303.025 227.705 302.211 226.735C301.396 225.764 300.346 225.019 299.161 224.57C297.976 224.121 296.696 223.983 295.443 224.169C294.189 224.356 293.005 224.861 292.002 225.636C287.474 229.104 288.839 237.067 291.239 241.468Z" fill="#B97964"/>
<path opacity="0.2" d="M295.223 244.928C295.585 245.071 295.96 245.182 296.342 245.259C297.342 245.49 298.382 245.494 299.384 245.271C300.386 245.048 301.326 244.603 302.134 243.97C301.728 243.406 301.252 242.896 300.718 242.452C298.686 242.731 296.778 243.591 295.223 244.928Z" fill="black"/>
<path d="M307.57 248.863C305.628 251.898 299.09 252.738 299.09 252.738C299.09 252.738 294.85 252.738 295.359 251.271C297.572 250.262 298.403 248.879 298.488 247.37C298.509 246.443 298.348 245.521 298.013 244.656C297.843 244.173 297.631 243.698 297.419 243.232L303.652 235.354C303.661 239.441 304.305 246.768 307.57 248.863Z" fill="#B97964"/>
<path d="M291.077 223.431C292.281 222.481 295.894 220.768 298.387 220.768C306.112 220.768 306.358 225.212 306.358 225.212C305.714 224.493 304.884 223.968 303.958 223.694C312.354 231.529 304.73 241.18 304.73 241.18C301.499 240.612 297.946 242.587 297.946 242.587C297.946 242.587 295.894 238.059 294.215 236.863C292.329 235.312 291.126 233.084 290.865 230.656C290.865 228.723 289.263 230.045 289.263 230.045C287.643 229.147 289.313 224.83 291.077 223.431Z" fill="#263238"/>
<path d="M295.868 235.515C295.899 236.033 295.816 236.552 295.624 237.034C295.432 237.516 295.136 237.95 294.757 238.305C293.816 239.043 292.713 237.737 292.442 236.126C292.213 234.692 292.4 232.539 293.612 232.488C294.825 232.437 295.86 234.048 295.868 235.515Z" fill="#B97964"/>
<path d="M291.561 228.188C291.561 228.188 291.315 240.484 293.926 244.3C293.926 244.3 290.636 242.002 290.67 228.756L291.561 228.188Z" fill="black"/>
<path d="M295.223 226.619C295.223 226.619 299.836 231.097 303.304 231.936C306.772 232.776 308.019 230.698 308.019 230.698L307.57 226.967C307.57 226.967 307.663 229.842 306.264 230.13C304.864 230.419 301.65 229.783 297.834 226.077L295.223 226.619Z" fill="#224B73"/>
<path opacity="0.4" d="M295.223 226.619C295.223 226.619 299.836 231.097 303.304 231.936C306.772 232.776 308.019 230.698 308.019 230.698L307.57 226.967C307.57 226.967 307.663 229.842 306.264 230.13C304.864 230.419 301.65 229.783 297.834 226.077L295.223 226.619Z" fill="white"/>
<path d="M287.473 230.393C287.473 230.393 287.023 224.941 289.169 222.397C291.314 219.853 297.437 218.453 301.405 219.395C305.374 220.336 307.536 225.458 307.698 226.501C308.062 228.926 298.997 224.652 293.858 226.577C288.719 228.502 287.473 230.393 287.473 230.393Z" fill="#224B73"/>
<path opacity="0.2" d="M287.473 230.393C287.473 230.393 287.023 224.941 289.169 222.397C291.314 219.853 297.437 218.453 301.405 219.395C305.374 220.336 307.536 225.458 307.698 226.501C308.062 228.926 298.997 224.652 293.858 226.577C288.719 228.502 287.473 230.393 287.473 230.393Z" fill="black"/>
<path d="M289.83 221.727C289.83 221.727 290.144 219.021 290.992 218.335C291.84 217.648 298.912 216.766 301.041 217.622C303.169 218.479 306.4 222.295 307.019 226.815L303.585 227.264C303.585 227.264 302.457 222.176 299.396 220.717C295.876 219.089 289.83 221.727 289.83 221.727Z" fill="#224B73"/>
<path d="M285.828 233.141C285.828 233.141 288.61 233.794 290.831 230.376C293.053 226.959 297.853 226.713 301.652 227.569C304.341 228.176 307.114 228.32 309.852 227.993L307.673 226.501C307.673 226.501 304.891 227.154 300.041 225.653C295.19 224.152 288.822 227.417 287.49 230.393L285.828 233.141Z" fill="#224B73"/>
<path d="M326.539 282.952L297.02 287.709C296.529 280.807 295.689 274.201 294.739 268.282C294.638 267.586 294.519 266.908 294.409 266.238C294.163 264.771 293.807 263.092 293.399 261.362C292.39 257.037 291.093 252.365 290.508 249.77C290.508 249.77 301.439 245.81 310.139 248.015C320.425 250.618 326.539 282.952 326.539 282.952Z" fill="#224B73"/>
<path opacity="0.2" d="M318.222 309.274C318.027 309.935 311.802 330.296 298.599 332.111C298.48 326.318 298.789 320.525 299.523 314.778C302.499 315.261 305.506 315.527 308.521 315.575C311.777 315.456 317.374 311.453 318.222 309.274Z" fill="black"/>
<path opacity="0.7" d="M325.718 279.102L296.724 284.148C296.614 282.782 296.479 281.426 296.326 280.086L309.275 277.542C308.427 273.361 306.731 265.789 304.314 260.141C302.301 255.607 299.272 251.597 295.461 248.422C295.97 248.303 296.504 248.193 297.064 248.091C306.078 254.875 310.632 270.419 312.209 276.965L320.401 275.337C319.68 271.513 317.857 263.024 315.228 256.834C313.784 253.514 311.775 250.47 309.292 247.836C309.589 247.896 309.885 247.964 310.14 248.04C310.918 248.247 311.654 248.591 312.311 249.058C318.967 257.292 322.309 269.978 323.386 274.743L324.573 274.514C325.039 276.227 325.412 277.796 325.718 279.102Z" fill="white"/>
<path opacity="0.2" d="M294.74 268.282C294.638 267.586 294.52 266.908 294.41 266.238C294.164 264.771 293.807 263.092 293.4 261.362C294.111 260.729 294.954 260.263 295.868 259.997C295.868 259.997 296.725 265.161 294.74 268.282Z" fill="black"/>
<path d="M266.163 264.89L261.007 264.322C260.089 263.762 259.236 263.102 258.463 262.354C257.929 261.659 253.909 260.014 252.866 260.794C251.823 261.574 251.043 267.892 252.408 268.188C254.313 268.421 256.237 268.455 258.149 268.29C258.773 268.101 259.378 267.854 259.955 267.552L265.162 269.113L266.163 264.89Z" fill="#263238"/>
<path d="M292.357 250.533C292.357 250.533 277.474 264.042 275.965 264.678C274.455 265.314 262.075 263.346 262.075 263.346L260.557 268.816C260.557 268.816 272.776 273.175 275.626 274.014C278.475 274.854 295.223 263.448 295.223 263.448C295.223 263.448 298.344 254.4 292.357 250.533Z" fill="#263238"/>
<path opacity="0.4" d="M292.357 250.533C292.357 250.533 277.474 264.042 275.965 264.678C274.455 265.314 262.075 263.346 262.075 263.346L260.557 268.816C260.557 268.816 272.776 273.175 275.626 274.014C278.475 274.854 295.223 263.448 295.223 263.448C295.223 263.448 298.344 254.4 292.357 250.533Z" fill="white"/>
</svg>
