<svg width="331" height="331" viewBox="0 0 331 331" fill="none" xmlns="http://www.w3.org/2000/svg">
<path d="M274.147 297.655C271.508 296.492 268.623 295.995 265.748 296.21C262.872 296.425 260.093 297.344 257.656 298.886C257.009 294.36 255.359 290.036 252.827 286.229C250.295 282.422 246.945 279.228 243.021 276.881C239.098 274.534 234.7 273.093 230.148 272.662C225.596 272.231 221.006 272.823 216.712 274.392C215.95 269.213 213.955 264.294 210.894 260.047C207.833 255.801 203.796 252.353 199.123 249.993C194.451 247.633 189.28 246.432 184.045 246.489C178.811 246.546 173.667 247.861 169.048 250.322C165.97 247.893 162.377 246.202 158.543 245.379C154.71 244.555 150.739 244.621 146.936 245.572C143.132 246.522 139.597 248.332 136.602 250.862C133.607 253.392 131.232 256.575 129.659 260.166C125.554 256.571 120.548 254.161 115.178 253.193C109.808 252.225 104.276 252.736 99.1742 254.672C94.0726 256.608 89.5938 259.896 86.2176 264.182C82.8414 268.469 80.6951 273.593 80.0085 279.006C76.1616 277.745 72.0813 277.361 68.0665 277.881C64.0517 278.401 60.204 279.812 56.8054 282.012C50.0596 286.48 43.0292 300.164 42.3672 308.221L283.156 309.432C282.349 303.745 279.363 300.025 274.147 297.655Z" fill="#F5F5F5"/>
<path d="M113.016 78.4536L138.86 45.9362L164.433 78.2616L113.016 78.4536Z" fill="#EBEBEB"/>
<path d="M150.666 73.1537L127.244 73.2395L127.591 167.951L151.013 167.865L150.666 73.1537Z" fill="#EBEBEB"/>
<path d="M164.434 55.8728L178.872 37.7141L193.151 55.7668L164.434 55.8728Z" fill="#F5F5F5"/>
<path d="M185.466 52.9149L172.385 52.9629L172.579 105.85L185.66 105.802L185.466 52.9149Z" fill="#F5F5F5"/>
<path d="M22.9453 302.772C66.5381 304.568 109.587 292.568 145.965 268.481C181.991 244.49 202.738 204.869 217.666 164.242L247.873 174.609C247.873 174.609 228.721 266.389 176.377 308.796H22.9453V302.772Z" fill="#224B73"/>
<g opacity="0.6">
<path d="M22.9453 302.772C66.5381 304.568 109.587 292.568 145.965 268.481C181.991 244.49 202.738 204.869 217.666 164.242L247.873 174.609C247.873 174.609 228.721 270.599 176.377 308.796H22.9453V302.772Z" fill="white"/>
</g>
<path d="M214.25 175C214.475 175.079 214.382 175.96 213.998 177.568C213.806 178.369 213.541 179.356 213.21 180.514L212.654 182.374C212.443 183.036 212.191 183.698 211.926 184.466C211.397 185.936 210.801 187.571 210.126 189.352C209.45 191.133 208.583 193.013 207.703 195.052C206.822 197.091 205.717 199.222 204.644 201.499C203.572 203.777 202.234 206.1 200.891 208.563L199.865 210.43C199.487 211.046 199.117 211.668 198.733 212.297L196.396 216.143L195.793 217.129L195.131 218.102L193.807 220.088C192.914 221.412 192.04 222.776 191.073 224.12C189.087 226.768 187.161 229.595 184.91 232.309C183.804 233.679 182.719 235.109 181.534 236.48C180.349 237.85 179.144 239.233 177.919 240.637L176.999 241.696L176.033 242.722L174.106 244.774L172.12 246.866C171.458 247.568 170.75 248.19 170.055 248.912C168.651 250.269 167.261 251.666 165.805 253.023L161.316 257.048C154.981 262.528 148.297 267.59 141.304 272.201C127.767 281.036 113.235 288.244 98.0092 293.676L92.8059 295.47L87.6754 297.026L85.1598 297.781L82.6574 298.443L77.7719 299.694C76.1632 300.065 74.5678 300.356 73.0121 300.72C71.4564 301.084 69.9272 301.382 68.3781 301.627L63.9361 302.362C63.2079 302.474 62.4929 302.613 61.778 302.706L59.6662 302.958C56.8725 303.282 54.2245 303.62 51.7222 303.778C49.2198 303.937 46.83 304.169 44.5991 304.162C42.3681 304.156 40.3027 304.262 38.3961 304.235C36.4896 304.209 34.7485 304.09 33.1862 304.01C32.405 303.964 31.6702 303.937 30.9817 303.878L29.0421 303.653C27.8438 303.507 26.8376 303.361 26.0233 303.222C24.3948 302.951 23.5475 302.686 23.5607 302.448C23.5739 302.21 24.4478 302.011 26.0763 301.839C26.8972 301.753 27.9034 301.673 29.0884 301.6L31.0016 301.508L33.1796 301.322C34.7154 301.199 36.4167 301.073 38.2836 300.945C40.1438 300.78 42.1629 300.535 44.3276 300.323C46.4924 300.111 48.7961 299.74 51.2389 299.416C53.6817 299.092 56.2701 298.562 58.9181 298.125L60.9637 297.761C61.6257 297.635 62.3407 297.47 63.0358 297.317L67.3255 296.391C68.7885 296.106 70.2516 295.689 71.7543 295.311L76.342 294.133L81.0355 292.75L83.4386 292.041L85.8549 291.234L90.7868 289.585L95.7915 287.712C110.407 282.114 124.387 274.982 137.498 266.435C144.245 261.986 150.722 257.141 156.894 251.924L161.283 248.098C162.706 246.807 164.07 245.45 165.454 244.192C166.116 243.53 166.837 242.921 167.486 242.252C168.135 241.584 168.81 240.928 169.432 240.266L171.365 238.28L172.325 237.314L173.239 236.314L176.84 232.375C178.025 231.051 179.111 229.727 180.223 228.403C182.487 225.841 184.46 223.173 186.472 220.671C187.459 219.407 188.359 218.102 189.279 216.858L190.643 215.004L191.305 214.084L191.967 213.157L194.423 209.523L195.615 207.769L196.713 206.008C198.157 203.684 199.6 201.506 200.798 199.348C201.996 197.19 203.261 195.224 204.254 193.284C205.247 191.344 206.24 189.577 207.147 187.935C208.053 186.293 208.755 184.731 209.464 183.361C209.821 182.699 210.126 182.037 210.47 181.421C210.814 180.805 211.052 180.236 211.311 179.7C211.84 178.634 212.31 177.714 212.707 177.052C213.495 175.635 214.025 174.92 214.25 175Z" fill="#224B73"/>
<path d="M215.918 189.12C212.82 192.619 210.444 196.695 208.927 201.116C208.716 201.747 208.708 202.429 208.906 203.066C209.104 203.702 209.497 204.259 210.03 204.659C210.562 205.059 211.207 205.282 211.873 205.294C212.54 205.307 213.193 205.11 213.74 204.73L213.806 204.684C211.647 209.977 209.835 215.406 208.385 220.936C208.179 221.711 208.217 222.531 208.493 223.285C208.77 224.038 209.272 224.687 209.931 225.145C210.59 225.603 211.374 225.847 212.176 225.843C212.979 225.84 213.76 225.59 214.415 225.126C226.217 216.761 234.584 204.398 237.963 190.332L215.918 189.12Z" fill="#224B73"/>
<g opacity="0.3">
<path d="M216.971 194.8C216.401 195.367 215.951 196.042 215.647 196.786C215.502 197.158 215.468 197.565 215.549 197.956C215.63 198.347 215.823 198.707 216.104 198.99C217.011 199.758 218.567 199.295 219.414 200.109C220.261 200.924 219.785 202.499 219.182 203.611L217.276 207.14C216.812 208 216.356 209.126 216.958 209.894C217.56 210.662 218.984 210.45 219.957 209.96C222.201 208.793 224.128 207.099 225.572 205.024C227.017 202.948 227.937 200.553 228.252 198.044L216.971 194.8Z" fill="black"/>
</g>
<path d="M269.468 147.46L269.646 147.719C274.721 155.306 278.027 163.935 279.322 172.971C280.617 182.006 279.867 191.217 277.127 199.924L273.652 210.986L256.473 188.829L269.468 147.46Z" fill="#224B73"/>
<path d="M269.468 147.46L269.409 147.666L269.223 148.268C269.058 148.798 268.826 149.592 268.522 150.559C267.899 152.545 266.999 155.471 265.874 159.132C263.596 166.414 260.392 176.761 256.606 188.869V188.723L272.268 208.914L273.784 210.9L273.487 210.96C274.184 208.753 274.868 206.579 275.539 204.439C276.201 202.294 276.909 200.189 277.472 198.103C278.601 194.1 279.319 189.992 279.617 185.843C279.89 182.092 279.806 178.324 279.365 174.589C279.206 172.828 278.862 171.16 278.591 169.551C278.319 167.943 277.929 166.414 277.478 164.99C276.199 160.433 274.388 156.043 272.083 151.909C271.315 150.426 270.58 149.36 270.137 148.599L269.442 147.454C269.442 147.454 269.508 147.533 269.647 147.725L270.19 148.559C270.653 149.307 271.414 150.367 272.176 151.869C274.519 155.987 276.357 160.373 277.651 164.931C278.114 166.361 278.412 167.91 278.796 169.505C279.074 171.12 279.425 172.815 279.59 174.563C280.048 178.309 280.144 182.092 279.875 185.856C279.585 190.029 278.871 194.162 277.743 198.19C277.18 200.295 276.466 202.387 275.81 204.531C275.155 206.676 274.486 208.848 273.765 211.052L273.665 211.37L273.46 211.105C272.983 210.49 272.46 209.821 271.944 209.119L256.294 188.915L256.248 188.849V188.769L265.715 158.946C266.873 155.318 267.787 152.439 268.422 150.453C268.733 149.48 268.978 148.732 269.144 148.209L269.435 147.626C269.441 147.57 269.452 147.515 269.468 147.46Z" fill="#263238"/>
<path d="M206.73 127.766L206.432 127.878C198.048 131.156 190.506 136.275 184.364 142.856C178.221 149.437 173.635 157.313 170.942 165.904L167.52 176.813L193.913 168.565L206.73 127.766Z" fill="#224B73"/>
<path d="M206.73 127.766C206.73 127.766 206.73 127.826 206.677 127.951C206.624 128.077 206.578 128.282 206.505 128.521C206.346 129.037 206.115 129.785 205.843 130.745L203.235 139.132L194.079 168.598V168.684H194L169.943 176.218L167.606 176.946L167.295 177.045L167.394 176.727L169.38 170.299C170.042 168.188 170.664 166.096 171.366 164.077C172.727 160.18 174.479 156.432 176.596 152.889C178.507 149.69 180.724 146.683 183.216 143.912C184.348 142.588 185.573 141.416 186.711 140.264C187.85 139.113 189.035 138.106 190.213 137.206C193.834 134.255 197.797 131.753 202.017 129.752C203.486 128.997 204.665 128.574 205.492 128.229L206.406 127.859L206.73 127.753L205.519 128.289C204.731 128.653 203.533 129.097 202.076 129.864C197.893 131.916 193.963 134.449 190.366 137.411C189.2 138.318 188.088 139.397 186.89 140.476C185.692 141.555 184.547 142.787 183.428 144.117C180.963 146.886 178.77 149.885 176.881 153.074C174.788 156.592 173.054 160.312 171.704 164.176C170.982 166.162 170.38 168.287 169.718 170.392C169.056 172.497 168.394 174.655 167.732 176.827L167.52 176.608L169.857 175.88L193.921 168.373L193.815 168.479C197.595 156.563 200.825 146.401 203.083 139.205C204.228 135.604 205.141 132.744 205.77 130.771C206.081 129.798 206.326 129.044 206.492 128.521C206.571 128.269 206.638 128.077 206.684 127.931C206.695 127.875 206.711 127.82 206.73 127.766Z" fill="#263238"/>
<path d="M272.082 29.2935C267.117 27.7378 253.957 37.7075 238.737 56.4884C223.756 74.9847 217.553 93.289 217.553 93.289L188.564 185.592L212.886 193.231L226.98 197.653L251.302 205.293L277.61 121.537C280.192 113.354 281.985 104.944 282.966 96.4203C283.973 87.8757 284.294 79.2643 283.926 70.6685C282.721 46.6246 277.08 30.8558 272.109 29.2935" fill="#F5F5F5"/>
<path d="M272.083 29.2935L272.302 29.3729L272.573 29.4788L272.924 29.6774C273.681 30.1728 274.343 30.8007 274.877 31.531C276.34 33.4177 277.909 36.6152 279.279 40.9447C280.891 46.2414 282.054 51.6648 282.755 57.1571C283.198 60.3744 283.556 63.83 283.807 67.5174C284.059 71.2047 284.211 75.1105 284.165 79.2215C284.118 83.3325 283.9 87.6422 283.503 92.1305C283.106 96.8066 282.474 101.46 281.609 106.072C280.667 111.03 279.452 115.932 277.968 120.755C276.41 125.725 274.806 130.846 273.156 136.12C266.536 157.185 259.221 180.534 251.435 205.346L251.389 205.511L251.224 205.458L219.858 195.608L188.486 185.751L188.32 185.704L188.373 185.539C196.172 160.727 203.513 137.378 210.14 116.313C211.795 111.044 213.403 105.924 214.966 100.955C215.747 98.4747 216.517 96.0297 217.276 93.62C218.09 91.2236 219.064 88.9397 220.057 86.7154C223.77 78.5058 228.252 70.666 233.442 63.3004C237.763 57.322 242.462 51.6261 247.51 46.2473C251.261 42.1677 255.316 38.3769 259.638 34.9072C263.206 32.1004 266.258 30.313 268.555 29.5649C269.404 29.2606 270.301 29.1148 271.203 29.1346L271.6 29.1677L271.885 29.2339L272.103 29.2935L271.878 29.2538L271.6 29.1942L271.203 29.1611C270.3 29.1568 269.403 29.3137 268.555 29.6245C266.304 30.3858 263.259 32.1864 259.691 35.0065C255.407 38.4828 251.387 42.2709 247.662 46.34C242.647 51.7364 237.979 57.4454 233.687 63.4328C228.519 70.792 224.057 78.6229 220.361 86.8213C219.375 89.0456 218.375 91.3295 217.601 93.7061L215.297 101.041C213.739 106.01 212.135 111.132 210.484 116.406C203.864 137.471 196.582 160.826 188.757 185.645L188.645 185.426L219.99 195.29L251.356 205.147L251.137 205.26L272.897 136.041L277.723 120.689C279.202 115.872 280.413 110.977 281.351 106.026C282.271 101.246 282.854 96.5924 283.264 92.1239C283.675 87.6554 283.887 83.3392 283.926 79.2281C283.966 75.1171 283.847 71.2246 283.595 67.5438C283.344 63.8631 283 60.4075 282.563 57.1968C281.879 51.711 280.736 46.2923 279.147 40.9976C277.823 36.6682 276.254 33.4707 274.811 31.584C274.286 30.8533 273.636 30.2212 272.891 29.7172L272.547 29.5119L272.282 29.406L272.083 29.2935Z" fill="#263238"/>
<path d="M265.778 118.39C279.643 110.924 284.83 93.6328 277.365 79.768C269.9 65.9032 252.608 60.7154 238.743 68.1809C224.878 75.6463 219.691 92.9379 227.156 106.803C234.621 120.668 251.913 125.855 265.778 118.39Z" fill="white"/>
<path d="M274.604 79.7644C274.442 79.7807 274.279 79.7641 274.123 79.7154C273.968 79.6668 273.824 79.5872 273.7 79.4814C273.577 79.3756 273.476 79.2458 273.403 79.0999C273.331 78.954 273.289 78.7949 273.28 78.6324C273.265 77.981 273.486 77.3462 273.903 76.845C274.314 76.3462 274.663 75.7994 274.942 75.2164C275.139 74.6602 275.153 74.0553 274.982 73.4906C274.81 72.9259 274.462 72.431 273.989 72.0786C274.306 71.9395 274.592 71.7379 274.83 71.4857C275.067 71.2335 275.252 70.9359 275.372 70.6108C275.492 70.2856 275.545 69.9397 275.528 69.5935C275.511 69.2474 275.424 68.9083 275.273 68.5964C274.902 68.0572 274.481 67.5541 274.015 67.0937C273.78 66.803 273.574 66.4904 273.399 66.1603C273.83 66.4206 274.31 66.5875 274.81 66.6502C275.216 66.6864 275.626 66.6192 275.999 66.4548C276.373 66.2905 276.699 66.0343 276.948 65.7101C277.188 65.3799 277.331 64.9891 277.36 64.5819C277.389 64.1747 277.304 63.7675 277.113 63.4064C276.916 63.0489 276.612 62.7611 276.245 62.5823C275.878 62.4034 275.464 62.3421 275.061 62.4067C274.291 62.633 273.613 63.0963 273.121 63.7307L272.618 64.2802C272.062 62.7179 271.572 61.1357 270.242 60.2288C269.037 59.4079 267.468 59.4079 266.111 58.9048C265.124 58.5142 264.27 57.8456 263.297 57.4153C262.324 56.985 261.106 56.8459 260.259 57.4815C259.756 57.8522 259.451 58.4414 258.935 58.8055C257.895 59.5668 256.287 59.2093 255.347 60.0897C254.585 60.8113 254.612 62.0294 254.096 62.9363C253.579 63.8433 252.414 64.4258 251.448 65.015C250.481 65.6042 249.501 66.531 249.587 67.663C249.66 68.656 250.547 69.4637 250.607 70.4633C250.541 71.1896 250.339 71.897 250.011 72.5486C249.779 73.2106 249.799 74.1572 250.428 74.5346L257.511 78.9965C259.828 80.9163 262.225 82.8758 265.098 83.7761C267.971 84.6764 271.473 84.2594 273.433 81.9755C273.019 81.8243 272.678 81.5214 272.479 81.1281C272.913 81.0757 273.33 80.9259 273.698 80.6897C274.066 80.4535 274.376 80.1372 274.604 79.7644Z" fill="#263238"/>
<path d="M267.514 80.1946C268.812 78.4693 269.96 76.6354 270.943 74.7132C271.927 72.7799 272.416 70.6327 272.366 68.464C272.366 68.1396 272.042 65.8822 271.704 65.816C271.479 65.7696 271.473 67.802 271.301 67.9344C269.694 69.5084 268.602 71.5327 268.169 73.7401C267.708 75.86 267.486 78.0251 267.507 80.1946" fill="#263238"/>
<path d="M255.115 95.7781C260.855 97.7641 264.344 90.2703 264.344 90.2703L270.183 72.3963C271.97 67.2856 270.487 61.983 265.33 60.3346L264.847 60.2088C262.49 59.6041 259.992 59.9093 257.85 61.0637C255.708 62.2182 254.079 64.1371 253.288 66.4383C251.759 70.8803 250.131 75.799 249.535 78.2417C248.31 83.2928 253.143 85.3649 253.143 85.3649C253.143 85.3649 252.812 86.5167 252.368 87.9797C251.375 91.2898 252.163 95.1161 253.474 95.4074L255.115 95.7781Z" fill="#A97663"/>
<path d="M253.143 85.3981C255.469 85.9864 257.915 85.8968 260.193 85.1399C260.193 85.1399 257.657 88.3903 252.752 86.6493L253.143 85.3981Z" fill="#896357"/>
<path d="M254.207 70.834C254.157 71.0209 254.182 71.2204 254.277 71.3891C254.372 71.5577 254.531 71.6818 254.717 71.7343C254.807 71.7652 254.901 71.7779 254.996 71.7715C255.09 71.7652 255.183 71.74 255.267 71.6974C255.352 71.6548 255.427 71.5957 255.488 71.5236C255.549 71.4515 255.596 71.3678 255.624 71.2775C255.675 71.0906 255.65 70.8911 255.555 70.7225C255.459 70.5538 255.301 70.4298 255.114 70.3772C255.025 70.3463 254.93 70.3336 254.836 70.34C254.741 70.3463 254.649 70.3715 254.564 70.4141C254.48 70.4567 254.405 70.5158 254.343 70.5879C254.282 70.66 254.236 70.7437 254.207 70.834Z" fill="#263238"/>
<path d="M253.824 68.8081C253.89 68.9273 254.539 68.6625 255.313 68.8611C256.088 69.0597 256.551 69.5959 256.637 69.5231C256.723 69.4503 256.637 69.298 256.438 69.0531C256.164 68.7289 255.797 68.4976 255.386 68.3911C254.984 68.2883 254.561 68.3138 254.174 68.4639C253.916 68.6095 253.79 68.7552 253.824 68.8081Z" fill="#263238"/>
<path d="M261.126 72.9192C261.077 73.1061 261.103 73.3048 261.198 73.4729C261.293 73.6411 261.45 73.7654 261.636 73.8195C261.725 73.8504 261.82 73.863 261.914 73.8567C262.009 73.8504 262.101 73.8252 262.186 73.7826C262.27 73.74 262.345 73.6809 262.407 73.6088C262.468 73.5367 262.514 73.453 262.543 73.3627C262.594 73.1766 262.57 72.9779 262.476 72.8094C262.381 72.641 262.225 72.5163 262.039 72.4624C261.95 72.4314 261.854 72.4186 261.759 72.4249C261.664 72.4311 261.572 72.4563 261.487 72.4988C261.402 72.5414 261.326 72.6004 261.264 72.6726C261.202 72.7448 261.155 72.8286 261.126 72.9192Z" fill="#263238"/>
<path d="M261.326 71.0656C261.392 71.1782 262.04 70.92 262.808 71.1186C263.576 71.3172 264.053 71.8468 264.132 71.7806C264.212 71.7144 264.132 71.5621 263.934 71.3172C263.665 70.9907 263.298 70.7588 262.888 70.6552C262.487 70.5454 262.061 70.571 261.676 70.728C261.418 70.8339 261.292 71.0127 261.326 71.0656Z" fill="#263238"/>
<path d="M257.029 76.2955C256.652 76.0672 256.249 75.8829 255.83 75.7461C255.638 75.6799 255.46 75.5872 255.46 75.4482C255.497 75.2384 255.596 75.0446 255.744 74.8921L256.711 73.5681C257.581 72.4321 258.358 71.2277 259.034 69.9668C258.076 71.03 257.204 72.1678 256.426 73.3695L255.48 74.7398C255.295 74.9465 255.19 75.2113 255.182 75.4879C255.191 75.5661 255.219 75.641 255.262 75.7065C255.306 75.772 255.365 75.8264 255.433 75.8652C255.534 75.9199 255.641 75.9642 255.751 75.9976C256.163 76.1506 256.592 76.2507 257.029 76.2955Z" fill="#263238"/>
<path d="M259.167 77.4142C259.041 77.3745 258.83 78.2152 257.956 78.6257C257.082 79.0361 256.215 78.7183 256.175 78.8309C256.135 78.9434 256.334 79.0493 256.711 79.1553C257.201 79.2867 257.721 79.2422 258.181 79.0295C258.625 78.8242 258.972 78.4537 259.147 77.9968C259.266 77.6591 259.227 77.4539 259.167 77.4142Z" fill="#263238"/>
<path d="M262.152 67.9344C262.152 68.1661 262.973 68.2654 263.854 68.5964C264.734 68.9274 265.403 69.3776 265.568 69.2187C265.734 69.0598 265.568 68.9142 265.323 68.6295C264.998 68.275 264.591 68.0047 264.138 67.8417C263.688 67.665 263.202 67.5991 262.722 67.6497C262.371 67.7027 262.152 67.8285 262.152 67.9344Z" fill="#263238"/>
<path d="M254.805 66.3192C254.898 66.531 255.467 66.4847 256.129 66.6436C256.791 66.8025 257.281 67.0606 257.453 66.9084C257.625 66.7561 257.486 66.637 257.294 66.4119C257.029 66.1263 256.682 65.9297 256.301 65.8492C255.924 65.7574 255.528 65.7875 255.169 65.9352C254.871 66.0544 254.765 66.2 254.805 66.3192Z" fill="#263238"/>
<path d="M268.819 76.024C268.911 76.024 272.539 75.8849 271.546 79.334C270.553 82.783 267.336 81.0485 267.356 80.9492C267.375 80.8499 268.819 76.024 268.819 76.024Z" fill="#A97663"/>
<path d="M268.771 79.9231C268.771 79.9231 268.818 79.9827 268.904 80.0555C269.03 80.154 269.188 80.2033 269.347 80.1946C269.745 80.1946 270.215 79.6848 270.413 79.0758C270.507 78.7854 270.534 78.4777 270.493 78.1754C270.493 78.0594 270.464 77.9451 270.41 77.8424C270.356 77.7398 270.277 77.6518 270.182 77.5863C270.117 77.5496 270.043 77.5356 269.969 77.5464C269.896 77.5572 269.829 77.5922 269.778 77.6459C269.705 77.7319 269.712 77.8047 269.692 77.8047C269.672 77.8047 269.632 77.7253 269.692 77.5929C269.738 77.5162 269.808 77.456 269.89 77.4208C270.005 77.3744 270.133 77.3744 270.248 77.4208C270.38 77.4884 270.492 77.5893 270.573 77.7135C270.655 77.8377 270.702 77.9809 270.711 78.1291C270.771 78.4671 270.748 78.8146 270.645 79.142C270.42 79.804 269.884 80.3667 269.321 80.3667C269.221 80.3662 269.123 80.3434 269.034 80.2998C268.945 80.2563 268.866 80.1931 268.805 80.1151C268.771 80.0092 268.771 79.9231 268.771 79.9231Z" fill="#896357"/>
<path d="M257.181 61.4667C256.724 60.9967 258.909 59.7058 260.451 59.4807C262.775 59.1696 266.071 59.5337 267.799 60.6326C269.871 61.9566 271.42 63.6579 271.943 66.0676C272.407 68.5009 272.217 71.0134 271.394 73.3496C271.202 74.0802 270.821 74.747 270.288 75.2827C269.587 75.8917 268.534 76.0903 268.263 77.1429C268.174 77.5291 267.936 77.8646 267.601 78.0763C266.773 78.5529 266.204 77.6989 266.038 76.9707C265.687 75.415 266.085 73.7998 266.475 72.2507C266.695 71.1343 267.096 70.0611 267.66 69.0731C267.998 68.5567 268.428 68.1 268.739 67.5704C268.909 67.3113 269.02 67.0185 269.066 66.7123C269.112 66.406 269.091 66.0935 269.004 65.7962C268.953 65.6685 268.888 65.5465 268.812 65.4321C268.463 64.877 267.972 64.4246 267.39 64.121C266.809 63.8175 266.157 63.6737 265.502 63.7043C263.384 63.8102 259.809 63.8367 259.147 62.9297C258.657 62.35 258.296 61.6731 258.088 60.9437L257.181 61.4667Z" fill="#263238"/>
<path d="M267.759 60.136C266.925 59.5268 265.98 59.0885 264.977 58.8465C263.974 58.6045 262.932 58.5635 261.913 58.726C261.37 58.802 260.847 58.9872 260.377 59.2705C259.908 59.5538 259.5 59.9293 259.179 60.3743C258.874 60.8298 258.74 61.3781 258.799 61.9229C258.858 62.4677 259.108 62.9742 259.503 63.3533L259.556 63.4129C260.88 64.3397 261.867 64.4258 263.462 64.3596C264.786 64.3 266.11 63.8763 267.434 63.83C268.874 63.7789 270.296 64.1593 271.519 64.9223C270.706 63.0251 269.409 61.3746 267.759 60.136Z" fill="#263238"/>
<path d="M273.154 65.538C273.114 65.538 272.942 65.1408 272.492 64.5847C272.24 64.2627 271.954 63.9696 271.638 63.7109C271.253 63.3919 270.8 63.1655 270.314 63.0489C269.427 62.8796 268.51 62.9598 267.666 63.2806C267.004 63.5322 266.66 63.8036 266.633 63.7705C266.607 63.7374 266.706 63.6778 266.865 63.5586C267.092 63.3865 267.339 63.242 267.6 63.1283C268.474 62.7393 269.448 62.6306 270.387 62.8172C270.904 62.944 271.383 63.1938 271.784 63.5454C272.109 63.8173 272.394 64.1338 272.631 64.4854C272.878 64.7952 273.056 65.154 273.154 65.538Z" fill="#455A64"/>
<path d="M273.115 66.8223C272.978 67.1471 272.788 67.4469 272.553 67.7093C272.013 68.3697 271.364 68.9318 270.633 69.371C269.9 69.808 269.099 70.1169 268.263 70.2845C267.921 70.3724 267.567 70.3971 267.217 70.3573C268.377 70.1415 269.495 69.7391 270.527 69.1657C271.508 68.5257 272.381 67.7348 273.115 66.8223Z" fill="#455A64"/>
<path d="M274.321 67.802C274.306 67.937 274.271 68.0689 274.215 68.1926C274.082 68.5378 273.923 68.872 273.738 69.1922C273.115 70.2476 272.245 71.1359 271.203 71.7806C270.158 72.4211 268.97 72.7919 267.747 72.8597C267.379 72.8927 267.009 72.8927 266.641 72.8597C266.506 72.8531 266.372 72.8263 266.244 72.7802C266.244 72.7339 266.82 72.7802 267.734 72.7207C268.919 72.6065 270.063 72.2233 271.078 71.6004C272.094 70.9775 272.953 70.1312 273.592 69.126C274.069 68.3316 274.281 67.7888 274.321 67.802Z" fill="#455A64"/>
<path d="M263.973 58.6069C263.639 58.6452 263.303 58.665 262.967 58.6664C261.357 58.7844 259.824 59.405 258.585 60.4406C258.115 60.8312 257.857 61.1026 257.83 61.1026C258.001 60.8042 258.226 60.5395 258.492 60.3214C259.709 59.1817 261.307 58.5351 262.974 58.5076C263.31 58.4842 263.648 58.5178 263.973 58.6069Z" fill="#455A64"/>
<path d="M276.948 63.1548C276.619 63.8175 276.116 64.3777 275.491 64.7745C274.867 65.1712 274.146 65.3895 273.406 65.4056C274.096 65.1976 274.761 64.9181 275.392 64.5715C275.958 64.1537 276.479 63.679 276.948 63.1548Z" fill="#455A64"/>
<path d="M276.855 97.976C275.432 94.9507 264.939 90.1181 264.939 90.1181C263.95 91.8212 262.579 93.2715 260.934 94.3549C258.286 96.0033 255.155 95.4141 252.791 93.6333C250.56 91.9452 251.328 88.6484 251.328 88.6484C251.328 88.6484 239.79 88.0659 236.466 89.8798C233.143 91.6936 231.289 97.0095 231.289 97.0095L227.139 106.423L231.501 112.805L233.414 114.658C233.414 114.658 238.465 119.802 247.786 121.411C256.485 122.914 264.032 119.213 264.032 119.213C268.666 117.657 272.711 113.917 276.431 108.767C276.444 108.786 278.51 101.524 276.855 97.976Z" fill="#455A64"/>
<path d="M231.337 91.5214C231.337 91.5214 234.051 88.1187 234.263 86.755L235.335 79.473C235.335 79.473 234.938 78.6521 233.905 79.5855C232.873 80.519 233.118 82.313 233.118 82.313L232.25 83.8488L231.754 82.3593L232.138 77.3943C232.138 77.3943 232.495 73.8261 231.866 74.0247C231.237 74.2233 230.807 75.17 230.648 76.7125C230.489 78.2549 230.304 80.2012 230.304 80.2012C230.304 80.2012 230.205 80.8036 229.94 79.6716C229.675 78.5396 230.251 74.2829 230.198 73.6739C230.145 73.0648 230.483 71.5753 229.629 71.4165C228.775 71.2576 228.722 73.2568 228.722 73.2568L227.788 79.5326C227.788 79.5326 227.702 76.8846 227.676 76.4212C227.649 75.9578 227.795 74.5676 227.722 73.7732C227.649 72.9788 227.332 72.4492 226.948 72.4095C226.769 72.3686 226.581 72.3981 226.424 72.4917C226.266 72.5854 226.15 72.736 226.1 72.9126L225.855 78.4403C225.855 78.4403 225.855 80.9956 225.776 81.128C225.697 81.2604 225.114 79.8834 225.114 79.8834L224.929 78.0166C224.929 78.0166 225.061 75.4811 224.439 75.2296C223.816 74.978 223.658 75.4547 223.658 75.4547L223.459 80.0887L223.975 85.5634L225.22 91.0712L227.246 91.4684L231.337 91.5214Z" fill="#A97663"/>
<path d="M226.404 87.384C226.729 87.0663 227.03 86.7256 227.305 86.3645C227.96 85.526 228.904 84.9619 229.953 84.7823C230.463 84.7138 230.981 84.8212 231.422 85.0868L231.568 85.1795L231.661 85.014C232.058 84.2858 232.508 83.6437 232.76 83.1803C233.011 82.7169 233.157 82.4256 233.117 82.4124C232.917 82.6118 232.742 82.834 232.594 83.0744C232.153 83.6577 231.742 84.2631 231.363 84.8882L231.601 84.8154C231.102 84.4977 230.507 84.3642 229.92 84.4381C229.286 84.5089 228.684 84.7515 228.178 85.1398C227.778 85.447 227.42 85.8053 227.113 86.2056C226.808 86.5532 226.568 86.9522 226.404 87.384Z" fill="#896357"/>
<path d="M251.124 88.6549L252.792 86.04L257.128 91.7332L256.651 94.2952L257.684 91.8325L265.522 87.2647L265.191 90.535L261.643 95.1293L256.956 97.0756L253.5 95.7847C253.5 95.7847 250.806 94.8049 250.852 94.5865C250.898 94.368 251.124 88.6549 251.124 88.6549Z" fill="#455A64"/>
<path d="M254.924 94.4275L255.321 96.6055L256.923 97.0226L258.373 95.4139L258.009 93.514L256.109 92.9844L254.924 94.4275Z" fill="#224B73"/>
<path d="M257.129 91.7334C256.951 92.093 256.728 92.4289 256.467 92.733C256.01 93.3355 255.354 94.1762 254.586 95.1295L254.421 95.3347L254.308 95.0964C254.11 94.6727 253.898 94.2225 253.646 93.7724C252.984 92.3425 252.382 91.0383 251.972 90.0851C251.72 89.5828 251.519 89.0574 251.369 88.5161C251.706 88.9669 251.992 89.453 252.223 89.9659C252.693 90.8927 253.322 92.1836 253.991 93.6135L254.62 94.9375L254.335 94.9044C255.123 93.9644 255.811 93.1501 256.321 92.5874C256.555 92.2716 256.826 91.9849 257.129 91.7334Z" fill="#263238"/>
<path d="M265.369 89.9526C264.948 90.4359 264.483 90.8791 263.979 91.2766C263.092 92.0777 261.848 93.17 260.464 94.3549L258.557 95.9901L258.346 96.1688L258.299 95.8974C258.087 94.7058 257.915 93.6929 257.803 92.9714C257.722 92.595 257.682 92.211 257.684 91.8261C257.835 92.1818 257.939 92.5557 257.995 92.9383C258.16 93.6466 258.372 94.6528 258.61 95.8378L258.352 95.7451L260.239 94.11C261.623 92.925 262.887 91.8658 263.82 91.1111C264.302 90.6809 264.821 90.2933 265.369 89.9526Z" fill="#263238"/>
<path d="M282.204 110.057L283.052 105.39C282.055 103.812 280.86 102.369 279.497 101.094C278.075 99.6208 276.188 98.6852 274.155 98.4459C271.507 98.2341 269.011 99.6243 266.826 101.14C264.642 102.656 262.497 104.384 259.922 105.02C258.946 105.324 257.893 105.267 256.956 104.861C255.585 104.159 255.036 102.405 255.268 100.889C255.61 99.381 256.261 97.9608 257.181 96.7181L255.446 96.1819C254.38 97.659 253.453 99.2326 252.679 100.882C252.053 102.344 251.918 103.971 252.295 105.516C252.672 106.642 253.344 107.646 254.242 108.423C255.14 109.2 256.231 109.721 257.399 109.932C259.755 110.324 262.175 109.887 264.244 108.694C266.131 107.687 267.839 106.238 269.924 105.735C271.362 105.434 272.858 105.575 274.214 106.14C275.571 106.705 276.724 107.666 277.524 108.899L282.204 110.057Z" fill="#224B73"/>
<path d="M232.945 114.526C232.853 114.526 233.607 110.501 234.587 105.576C235.567 100.65 236.48 96.6719 236.573 96.6917C236.666 96.7116 235.911 100.717 234.925 105.642C233.938 110.567 233.025 114.572 232.945 114.526Z" fill="#263238"/>
<path d="M223.843 90.9189L232.773 91.5809L232.363 112.176L232.25 113.592C232.25 113.592 224.896 105.536 224.306 99.0284C224.181 97.6449 223.883 96.5459 223.81 95.5728C223.578 91.945 223.843 90.9189 223.843 90.9189Z" fill="#455A64"/>
<path d="M232.223 111.878C232.189 111.612 232.189 111.343 232.223 111.077C232.223 110.494 232.256 109.753 232.276 108.906C232.322 107.072 232.335 104.53 232.362 101.73C232.388 98.9293 232.435 96.3806 232.534 94.5402C232.58 93.6267 232.627 92.8786 232.68 92.3689C232.684 92.1004 232.722 91.8335 232.792 91.5745C232.818 91.8409 232.818 92.1091 232.792 92.3755C232.792 92.958 232.792 93.6995 232.792 94.5535C232.792 96.4666 232.746 98.9624 232.719 101.73C232.693 104.497 232.64 107.079 232.534 108.912C232.481 109.832 232.428 110.574 232.369 111.09C232.346 111.357 232.298 111.621 232.223 111.878Z" fill="#263238"/>
<path d="M224.233 88.0459C224.244 88.1139 224.244 88.1831 224.233 88.2511C224.233 88.4034 224.193 88.602 224.167 88.8469C224.114 89.3699 223.995 90.1709 223.909 91.1374C223.606 95.9116 224.486 100.687 226.471 105.039C228.44 109.33 231.445 113.063 235.216 115.903C237.343 117.484 239.677 118.765 242.153 119.709C244.623 120.671 247.218 121.268 249.859 121.484C252.316 121.714 254.793 121.607 257.221 121.166C259.423 120.786 261.57 120.139 263.616 119.239C264.544 118.844 265.452 118.403 266.336 117.915C267.177 117.432 267.965 116.916 268.706 116.426C269.448 115.936 270.116 115.4 270.692 114.864C271.268 114.327 271.877 113.844 272.367 113.334L273.737 111.898L274.783 110.607L275.227 110.057L275.584 109.548L276.134 108.747L276.485 108.257C276.521 108.198 276.563 108.142 276.611 108.091C276.611 108.091 276.611 108.157 276.511 108.277L276.194 108.78L275.664 109.607L275.326 110.13C275.187 110.302 275.042 110.494 274.889 110.693L273.857 112.017L272.533 113.473C272.043 113.996 271.447 114.48 270.858 115.036C270.269 115.592 269.534 116.068 268.872 116.631C268.21 117.194 267.343 117.657 266.495 118.154C265.608 118.662 264.693 119.119 263.755 119.524C256.876 122.562 249.075 122.755 242.054 120.06C239.538 119.098 237.168 117.793 235.011 116.181C231.2 113.304 228.172 109.516 226.206 105.165C224.225 100.762 223.382 95.9314 223.757 91.1176C223.862 90.1246 224.008 89.3567 224.081 88.8337L224.174 88.2379C224.187 88.172 224.207 88.1077 224.233 88.0459Z" fill="#263238"/>
<path d="M279.781 100.723C279.807 100.381 279.865 100.042 279.953 99.7105C280.099 99.0485 280.258 98.1151 280.403 96.95C280.768 93.8945 280.651 90.8009 280.059 87.7813C279.722 86.1244 279.253 84.4973 278.656 82.9156C278.148 81.6298 277.558 80.3782 276.888 79.1687C276.617 78.6457 276.326 78.1955 276.081 77.7983C275.836 77.4011 275.617 77.0569 275.419 76.7855C275.214 76.5083 275.03 76.2162 274.869 75.9116C275.113 76.1561 275.335 76.4219 275.531 76.706C275.782 77.0221 276.017 77.3513 276.233 77.6924C276.498 78.083 276.802 78.5265 277.093 79.0164C277.801 80.2181 278.418 81.4705 278.94 82.7633C279.566 84.3582 280.053 86.0038 280.397 87.682C280.997 90.7358 281.079 93.8687 280.642 96.95C280.511 97.8787 280.323 98.7984 280.079 99.7039C280.01 100.052 279.911 100.393 279.781 100.723Z" fill="#263238"/>
<path d="M251.712 64.7568C251.397 64.8277 251.076 64.8654 250.753 64.8694C250.441 64.8694 250.091 64.9223 249.627 64.9819C249.164 65.0415 248.687 65.0812 248.144 65.1871C246.863 65.3929 245.596 65.6803 244.351 66.0477C242.831 66.5094 241.349 67.0848 239.916 67.7689C238.493 68.471 237.123 69.2764 235.818 70.1786C234.759 70.928 233.748 71.7439 232.793 72.6214C232.369 72.9855 232.025 73.3496 231.707 73.6541C231.389 73.9586 231.131 74.2433 230.926 74.4684C230.725 74.7084 230.504 74.9299 230.264 75.1304C230.435 74.8541 230.632 74.5947 230.853 74.3558C231.045 74.1109 231.29 73.8196 231.594 73.4952C231.899 73.1709 232.256 72.7935 232.647 72.4162C233.592 71.5072 234.598 70.6645 235.659 69.894C238.265 68.0148 241.177 66.6015 244.265 65.7167C245.526 65.3601 246.812 65.0947 248.111 64.9223C248.667 64.8297 249.17 64.8098 249.614 64.7635C250.057 64.7171 250.435 64.7105 250.753 64.7105C251.073 64.7007 251.394 64.7162 251.712 64.7568Z" fill="#263238"/>
<path d="M248.323 121.709C248.23 121.709 249.196 118.352 250.474 114.274C251.752 110.196 252.864 106.913 252.957 106.939C253.049 106.966 252.083 110.296 250.805 114.374C249.527 118.452 248.409 121.735 248.323 121.709Z" fill="#263238"/>
<path d="M277.087 58.4148C277.087 58.4148 277.087 58.481 277.087 58.6068C277.04 58.7922 276.959 58.9673 276.849 59.1231C276.647 59.4188 276.372 59.6572 276.05 59.815C275.729 59.9728 275.372 60.0446 275.015 60.0235C274.526 59.9586 274.066 59.754 273.691 59.4343C273.309 59.0926 272.83 58.8796 272.321 58.8252C271.759 58.8226 271.214 59.0092 270.771 59.3548C270.285 59.7484 269.841 60.1922 269.447 60.6788C268.63 61.628 267.667 62.4413 266.594 63.0885C265.706 63.6105 264.714 63.9313 263.688 64.0286C262.998 64.0891 262.304 64.0149 261.642 63.8101C261.405 63.7442 261.181 63.6366 260.98 63.4923C261.852 63.772 262.771 63.8711 263.681 63.7836C264.665 63.6605 265.61 63.3287 266.455 62.8105C267.488 62.1667 268.416 61.3698 269.209 60.4471C269.624 59.9574 270.09 59.5135 270.599 59.1231C271.106 58.7364 271.729 58.5334 272.367 58.5472C272.933 58.6141 273.463 58.8572 273.883 59.2423C274.216 59.5421 274.626 59.7418 275.068 59.8182C275.384 59.83 275.699 59.7658 275.986 59.6311C276.273 59.4963 276.523 59.2949 276.716 59.0437C276.861 58.8472 276.985 58.6365 277.087 58.4148Z" fill="#263238"/>
<path d="M277.021 63.254C277.021 63.254 277.18 63.254 277.444 63.3268C277.829 63.4308 278.195 63.5938 278.53 63.8101C278.794 63.9757 279.011 64.2051 279.163 64.477C279.314 64.7489 279.395 65.0545 279.397 65.3658C279.344 65.7387 279.209 66.0954 279.003 66.411C278.798 66.7266 278.525 66.9935 278.206 67.1929C277.598 67.6135 276.879 67.8439 276.14 67.8549C275.539 67.8558 274.947 67.7056 274.419 67.418C274.07 67.2281 273.759 66.9769 273.499 66.6766C273.32 66.4581 273.254 66.3191 273.267 66.3058C273.652 66.6522 274.077 66.9521 274.532 67.1995C275.032 67.435 275.581 67.5506 276.134 67.5372C276.807 67.4996 277.454 67.2699 278.001 66.8752C278.279 66.7022 278.518 66.4735 278.704 66.2035C278.89 65.9335 279.018 65.628 279.08 65.3062C279.079 65.0459 279.016 64.7895 278.895 64.5589C278.773 64.3284 278.599 64.1306 278.385 63.9822C278.077 63.7609 277.746 63.5744 277.398 63.4261C277.153 63.3467 277.014 63.2739 277.021 63.254Z" fill="#263238"/>
<path d="M255.374 190.107C255.374 190.199 241.392 185.982 224.214 180.699C207.035 175.417 193.1 171.054 193.152 170.961C193.205 170.869 207.134 175.086 224.319 180.368C241.505 185.651 255.4 189.994 255.374 190.107Z" fill="#263238"/>
<path d="M254.208 192.814C254.208 192.907 240.227 188.696 223.048 183.414C205.869 178.131 191.98 173.768 191.98 173.676C191.98 173.583 205.955 177.793 223.141 183.083C240.326 188.372 254.248 192.728 254.208 192.814Z" fill="#263238"/>
<path d="M253.341 195.786C253.341 195.873 239.359 191.662 222.18 186.379C205.001 181.097 191.066 176.734 191.119 176.641C191.172 176.549 205.094 180.759 222.28 186.048C239.465 191.338 253.367 195.694 253.341 195.786Z" fill="#263238"/>
<path d="M252.46 198.752C252.46 198.845 238.478 194.628 221.299 189.345C204.121 184.062 190.185 179.7 190.238 179.607C190.291 179.515 204.22 183.731 221.405 189.014C238.591 194.297 252.486 198.66 252.46 198.752Z" fill="#263238"/>
<path d="M251.561 201.718C251.528 201.811 237.58 197.6 220.401 192.311C203.222 187.022 189.287 182.666 189.34 182.58C189.393 182.494 203.341 186.684 220.527 191.98C237.712 197.276 251.614 201.625 251.561 201.718Z" fill="#263238"/>
<path d="M238.195 137.696C238.192 137.848 238.17 138 238.129 138.146C238.089 138.451 237.957 138.868 237.811 139.424C237.513 140.523 237.05 142.072 236.454 144.058C235.262 147.957 233.555 153.326 231.641 159.218C229.728 165.109 227.947 170.472 226.65 174.324C225.988 176.224 225.478 177.774 225.094 178.886C224.915 179.395 224.763 179.806 224.651 180.124C224.608 180.271 224.551 180.413 224.479 180.547C224.498 180.394 224.533 180.243 224.584 180.097L224.968 178.846C225.319 177.721 225.816 176.158 226.418 174.252L231.31 159.112C233.224 153.227 234.951 147.858 236.216 143.985C236.831 142.078 237.328 140.516 237.685 139.397C237.844 138.855 237.997 138.431 238.063 138.146C238.098 137.994 238.143 137.843 238.195 137.696Z" fill="#E0E0E0"/>
<path d="M257.127 96.8374C257.127 96.9301 256.677 96.9102 256.167 96.791C255.657 96.6719 255.26 96.4998 255.28 96.4071C255.3 96.3144 255.73 96.3343 256.247 96.4534C256.763 96.5726 257.147 96.7447 257.127 96.8374Z" fill="#263238"/>
<path d="M269.468 147.461C269.435 147.547 255.486 143.257 238.307 137.875C221.128 132.493 207.193 128.057 207.246 127.945C207.299 127.832 221.221 132.142 238.407 137.524C255.592 142.906 269.494 147.368 269.468 147.461Z" fill="#EBEBEB"/>
<path d="M233.686 169.73C233.825 169.636 233.988 169.583 234.156 169.578C234.62 169.531 235.086 169.641 235.48 169.889C235.782 170.067 236.033 170.322 236.205 170.627C236.377 170.933 236.465 171.279 236.46 171.63C236.466 172.067 236.338 172.495 236.093 172.856C235.847 173.216 235.496 173.493 235.087 173.646C234.678 173.8 234.232 173.823 233.809 173.714C233.387 173.604 233.008 173.367 232.726 173.034C232.485 172.77 232.32 172.446 232.248 172.097C232.176 171.747 232.199 171.385 232.316 171.048C232.447 170.605 232.725 170.22 233.103 169.955C233.232 169.845 233.391 169.776 233.56 169.757C233.56 169.757 233.408 169.856 233.189 170.061C232.866 170.336 232.635 170.704 232.527 171.114C232.446 171.405 232.441 171.712 232.513 172.005C232.584 172.299 232.731 172.568 232.938 172.789C233.18 173.068 233.502 173.267 233.861 173.358C234.219 173.449 234.597 173.429 234.944 173.299C235.29 173.169 235.589 172.937 235.8 172.633C236.01 172.328 236.123 171.967 236.122 171.597C236.133 171.295 236.066 170.996 235.926 170.728C235.787 170.46 235.581 170.232 235.328 170.068C234.983 169.828 234.575 169.697 234.156 169.69C233.838 169.71 233.686 169.763 233.686 169.73Z" fill="#E0E0E0"/>
<path d="M239.599 151.995C239.737 151.9 239.901 151.847 240.069 151.843C240.532 151.798 240.998 151.907 241.393 152.154C241.694 152.333 241.943 152.588 242.114 152.894C242.285 153.199 242.372 153.545 242.366 153.895C242.373 154.332 242.244 154.76 241.999 155.121C241.753 155.481 241.402 155.758 240.993 155.911C240.584 156.065 240.138 156.088 239.716 155.979C239.293 155.869 238.915 155.632 238.632 155.299C238.392 155.035 238.227 154.711 238.154 154.362C238.082 154.012 238.105 153.65 238.222 153.313C238.357 152.89 238.624 152.521 238.983 152.26C239.113 152.153 239.272 152.086 239.44 152.068C239.44 152.068 239.294 152.167 239.069 152.366C238.748 152.645 238.517 153.014 238.407 153.425C238.323 153.715 238.316 154.022 238.386 154.316C238.457 154.61 238.604 154.88 238.811 155.1C239.064 155.358 239.383 155.541 239.733 155.631C240.083 155.721 240.451 155.713 240.797 155.61C241.135 155.467 241.426 155.23 241.635 154.927C241.843 154.625 241.962 154.269 241.975 153.902C241.988 153.601 241.922 153.303 241.784 153.036C241.645 152.769 241.44 152.542 241.188 152.379C240.84 152.141 240.431 152.008 240.009 151.995C239.777 151.975 239.605 152.028 239.599 151.995Z" fill="#E0E0E0"/>
<path d="M230.17 123.351C230.309 123.257 230.472 123.204 230.64 123.198C231.104 123.152 231.57 123.261 231.964 123.509C232.267 123.687 232.517 123.942 232.689 124.248C232.861 124.554 232.949 124.9 232.944 125.25C232.951 125.687 232.823 126.115 232.577 126.476C232.331 126.837 231.98 127.113 231.571 127.267C231.163 127.42 230.716 127.444 230.294 127.334C229.871 127.224 229.493 126.987 229.21 126.654C228.97 126.39 228.805 126.067 228.733 125.717C228.66 125.368 228.684 125.005 228.8 124.668C228.931 124.225 229.209 123.84 229.588 123.576C229.717 123.465 229.876 123.396 230.044 123.377C230.044 123.377 229.899 123.476 229.674 123.675C229.353 123.954 229.122 124.323 229.012 124.734C228.93 125.025 228.925 125.332 228.997 125.625C229.069 125.919 229.215 126.189 229.422 126.409C229.665 126.688 229.987 126.887 230.345 126.978C230.704 127.07 231.082 127.049 231.428 126.919C231.775 126.79 232.073 126.557 232.284 126.253C232.495 125.949 232.607 125.587 232.606 125.217C232.617 124.916 232.55 124.616 232.411 124.348C232.272 124.08 232.065 123.853 231.812 123.688C231.468 123.448 231.06 123.317 230.64 123.311C230.375 123.331 230.177 123.384 230.17 123.351Z" fill="#E0E0E0"/>
<path d="M229.139 110.064C229.225 110.064 227.689 115.155 225.709 121.371C223.73 127.587 222.042 132.625 221.949 132.579C221.857 132.532 223.392 127.488 225.378 121.265C227.364 115.042 229.053 110.038 229.139 110.064Z" fill="#EBEBEB"/>
<g opacity="0.3">
<path d="M194.252 167.486C194.252 167.486 203.275 140.893 206.73 127.766C202.169 133.221 197.025 139.483 194.344 146.064C191.647 152.944 191.614 160.583 194.252 167.486Z" fill="black"/>
</g>
<path d="M204.128 238.155C203.271 238.35 202.524 238.874 202.049 239.614C201.574 240.354 201.409 241.251 201.588 242.112C201.768 242.973 202.278 243.729 203.009 244.217C203.74 244.706 204.634 244.888 205.498 244.725C206.362 244.561 207.127 244.065 207.629 243.343C208.131 242.621 208.33 241.731 208.183 240.864C208.035 239.997 207.554 239.223 206.841 238.708C206.129 238.192 205.242 237.977 204.373 238.108" fill="#224B73"/>
</svg>
