<svg width="54" height="75" viewBox="0 0 54 75" fill="none" xmlns="http://www.w3.org/2000/svg">
<path d="M53.9994 56.1081C54.0571 50.2693 50.0871 45.2661 44.5827 43.9194L34.2752 40.587V37.3912C38.4823 34.9071 41.3148 30.3676 41.3148 25.1741V22.4866H41.3949C42.7214 22.4866 43.798 21.4192 43.798 20.1041V17.4007C43.798 16.3778 43.1443 15.5106 42.2279 15.1738C41.7505 9.21441 37.5018 4.29363 31.6383 2.9152C31.4652 1.30777 29.9689 -0.000965033 28.3316 0.030751C25.8484 -0.0327827 22.7595 -0.27421 22.2853 2.91203C19.8053 3.49972 17.5496 4.75448 15.7104 6.57474C13.3553 8.90961 11.9615 11.9306 11.6988 15.1738C10.7824 15.5106 10.1255 16.3778 10.1255 17.4007V20.1041C10.1223 21.4478 11.2566 22.5311 12.6119 22.4866V25.1741C12.6119 30.3997 15.4765 34.9646 19.7252 37.4392V40.5905L9.50057 43.8974C3.8965 45.2729 -0.0350361 50.2095 0.000235418 56.1276C0.000235418 56.1308 0.0963621 73.7357 0.0963621 73.7357C0.0995669 74.4345 0.673117 75 1.37803 75C10.9588 75 43.6439 74.9968 52.6128 75C53.3177 75 53.8912 74.4345 53.8944 73.7357C53.8944 73.7325 53.9906 56.1081 53.9906 56.1081H53.9994ZM51.436 56.1112L51.3944 63.9481H45.5596V62.2835C45.5307 60.6126 43.0251 60.6126 42.9962 62.2835V72.4587C41.5191 72.4428 38.9942 72.4809 37.5428 72.4587L44.672 46.6223C46.2517 47.156 47.684 48.0391 48.8342 49.2526C50.4908 50.9998 51.4136 53.4396 51.436 56.1112ZM28.5194 72.4588V59.2918L38.0616 44.4853L42.2334 45.8322L34.8862 72.459L28.5194 72.4588ZM19.5892 72.4588L12.2036 45.6986L16.4587 44.3231L25.9557 59.2882V72.4617H19.5891L19.5892 72.4588ZM12.697 19.9485V17.5628H41.2399V19.9485H12.697ZM39.6502 15.0215H30.3328L31.4542 5.4977C35.9049 6.71755 39.1407 10.4629 39.6502 15.0215ZM25.0133 2.83274C25.0999 2.73744 25.2921 2.57226 25.5965 2.57226H28.336C28.8743 2.62626 29.1178 2.90263 29.1114 3.43632L27.7464 15.0184H26.1796L24.8177 3.43632C24.7825 3.13453 24.9235 2.92805 25.01 2.83274H25.0133ZM17.5316 8.37288C18.9286 6.98787 20.6268 6.03167 22.4853 5.51388L23.6035 15.0189H14.2861C14.5713 12.5126 15.6992 10.1872 17.5319 8.37011L17.5316 8.37288ZM15.1829 25.1742V22.4867H38.7558V25.1742C38.7558 31.6166 33.4689 36.8579 26.9677 36.8579C20.4696 36.8579 15.1829 31.6164 15.1829 25.1742ZM21.4119 42.7189C21.9406 42.5473 22.2962 42.0613 22.2962 41.5117V38.6114C23.7637 39.1133 25.3305 39.4024 26.9679 39.4024C28.634 39.4024 30.2265 39.1038 31.7165 38.586V41.5149C31.7165 42.0645 32.0721 42.5537 32.6008 42.7221L35.5454 43.672L27.25 56.547L18.9768 43.5101L21.4152 42.7223L21.4119 42.7189ZM5.17632 49.2501C6.41312 47.9445 7.97999 47.0137 9.76793 46.4832L16.9357 72.4562H11.0143V62.2811C10.9855 60.6101 8.47987 60.6101 8.45099 62.2811V63.9457H2.61618L2.57133 56.1278C2.59376 53.4372 3.51652 50.9943 5.17313 49.2503L5.17632 49.2501ZM2.63218 66.4865H8.45099V72.4555H2.66425L2.63218 66.4865ZM45.5617 72.4555V66.4865H51.3837L51.3517 72.4555H45.5617Z" fill="#224B73"/>
</svg>
