<svg width="82" height="82" viewBox="0 0 82 82" fill="none" xmlns="http://www.w3.org/2000/svg">
<path d="M19.15 53.0762C25.3523 53.0762 30.3978 48.0308 30.3978 41.8285C30.3978 35.628 25.3523 30.5828 19.15 30.5828C12.9496 30.5828 7.9043 35.6282 7.9043 41.8285C7.90411 48.0308 12.9496 53.0762 19.15 53.0762ZM19.15 33.61C23.6835 33.61 27.3704 37.297 27.3704 41.8285C27.3704 46.362 23.6833 50.0488 19.15 50.0488C14.6184 50.0488 10.9315 46.3618 10.9315 41.8285C10.9313 37.2968 14.6184 33.61 19.15 33.61Z" fill="#224B73"/>
<path d="M27.3631 55.6581C26.9233 55.6581 26.5074 55.8484 26.2191 56.1792C22.6651 60.2801 15.6404 60.2838 12.0829 56.1792C11.7946 55.8484 11.3787 55.6581 10.9389 55.6581C4.90481 55.6581 -0.00390625 60.5666 -0.00390625 66.6009V80.4914C-0.00390625 81.3268 0.674275 82.005 1.50969 82.005H36.7921C37.6275 82.005 38.3076 81.3268 38.3076 80.4914V66.6009C38.3076 60.5666 33.3972 55.6581 27.3631 55.6581ZM35.2767 78.9776H3.02329V66.6007C3.02329 62.4516 6.23353 59.0382 10.2993 58.7111C14.9455 63.4626 23.3581 63.4589 28.0025 58.7111C32.0683 59.0382 35.2767 62.4516 35.2767 66.6007V78.9776Z" fill="#224B73"/>
<path d="M56.1669 0C41.9401 0 30.3652 7.58282 30.3652 16.9047C30.3652 22.0424 33.9081 26.8735 39.9293 30.056C38.3696 32.6027 36.4956 34.5118 34.3443 35.7444C33.8156 36.0476 33.5218 36.6372 33.5958 37.2414C33.6697 37.8458 34.0966 38.3466 34.6807 38.5148C34.7583 38.5351 35.3386 38.6922 36.3219 38.6922C38.5506 38.6922 42.8383 37.8938 47.9871 32.9334C50.6521 33.5137 53.3985 33.8076 56.1669 33.8076C70.3937 33.8076 81.9667 26.2248 81.9667 16.9047C81.9667 7.58282 70.3937 0 56.1669 0ZM56.1669 30.7805C53.3504 30.7805 50.5597 30.4497 47.8689 29.801C47.3588 29.6772 46.8082 29.8325 46.4347 30.2094C44.0839 32.5972 41.977 33.9556 40.2546 34.7207C41.4153 33.4011 42.4575 31.8599 43.3779 30.1096C43.5701 29.74 43.6034 29.3093 43.4667 28.9139C43.3336 28.5202 43.0416 28.1988 42.6646 28.0269C36.8578 25.3896 33.3926 21.2314 33.3926 16.9049C33.3926 9.25365 43.6109 3.02738 56.167 3.02738C68.7232 3.02738 78.9358 9.25365 78.9358 16.9049C78.9358 24.5562 68.723 30.7805 56.1669 30.7805Z" fill="#224B73"/>
<path d="M69.9773 9.01147H42.3553C41.5199 9.01147 40.8398 9.68966 40.8398 10.5251C40.8398 11.3605 41.52 12.0387 42.3553 12.0387H69.9773C70.8127 12.0387 71.4927 11.3605 71.4927 10.5251C71.4927 9.68966 70.8125 9.01147 69.9773 9.01147Z" fill="#224B73"/>
<path d="M69.9773 15.3431H42.3553C41.5199 15.3431 40.8398 16.0213 40.8398 16.8567C40.8398 17.6922 41.52 18.3703 42.3553 18.3703H69.9773C70.8127 18.3703 71.4927 17.6922 71.4927 16.8567C71.4927 16.0213 70.8125 15.3431 69.9773 15.3431Z" fill="#224B73"/>
<path d="M69.9773 21.6729H42.3553C41.5199 21.6729 40.8398 22.351 40.8398 23.1865C40.8398 24.0219 41.52 24.7 42.3553 24.7H69.9773C70.8127 24.7 71.4927 24.0219 71.4927 23.1865C71.4927 22.3512 70.8125 21.6729 69.9773 21.6729Z" fill="#224B73"/>
</svg>
