<svg width="80" height="80" viewBox="0 0 80 80" fill="none" xmlns="http://www.w3.org/2000/svg">
<path d="M71.5638 63.1702H8.42024C3.78055 63.1702 0 66.9518 0 71.593C0 76.2301 3.78045 80 8.42024 80H71.5798C76.2195 80 80 76.2184 80 71.5773C79.9844 66.9401 76.2035 63.1702 71.5638 63.1702ZM71.5638 77.4687H8.42024C5.17088 77.4687 2.5308 74.8278 2.5308 71.5775C2.5308 68.3271 5.17088 65.6863 8.42024 65.6863H71.5798C74.8291 65.6863 77.4692 68.3271 77.4692 71.5775C77.4536 74.8278 74.8131 77.4687 71.5638 77.4687ZM45.12 67.9091H8.42024C6.38944 67.9091 4.74906 69.5577 4.74906 71.5814C4.74906 73.6128 6.39714 75.2536 8.42024 75.2536H45.132C47.1628 75.2536 48.8032 73.6051 48.8032 71.5814C48.7993 69.5578 47.1509 67.9091 45.12 67.9091ZM19.977 70.4405H22.9959L21.6758 72.7299H18.6569L19.977 70.4405ZM15.7356 72.7299H12.7167L14.0367 70.4405H17.0556L15.7356 72.7299ZM25.9176 70.4405H28.9365L27.6164 72.7299H24.5975L25.9176 70.4405ZM31.8539 70.4405H34.8728L33.5528 72.7299H30.5339L31.8539 70.4405ZM37.7941 70.4405H40.813L39.493 72.7299H36.4741L37.7941 70.4405ZM7.26916 71.5774C7.26916 70.9562 7.78859 70.4366 8.40954 70.4366H11.1199L9.79986 72.726H8.42124C7.80027 72.7299 7.26916 72.1985 7.26916 71.5774ZM45.1207 72.7298H42.4024L43.7225 70.4404H45.1206C45.7416 70.4404 46.261 70.96 46.261 71.5812C46.2727 72.1984 45.7416 72.7298 45.1207 72.7298ZM49.2722 25.3461L48.9324 27.0845L45.9916 28.3035L44.5114 27.3151C43.6834 26.7564 42.5704 26.8658 41.8635 27.5768L38.7157 30.7255C38.0049 31.4365 37.9073 32.546 38.454 33.3742L39.4421 34.8548L38.2236 37.7965L36.4856 38.1364C35.5053 38.3278 34.7945 39.1951 34.7945 40.1952V44.6566C34.7945 45.6567 35.5053 46.5161 36.4856 46.7154L38.2236 47.0552L39.4421 49.9969L38.454 51.4776C37.8956 52.3058 38.0049 53.4192 38.7157 54.1262L41.8635 57.275C42.5743 57.986 43.6834 58.0836 44.5114 57.5367L45.9916 56.5288L48.9324 57.7477L49.2722 59.4862C49.4635 60.4668 50.3306 61.1778 51.3304 61.1778H55.7904C56.7902 61.1778 57.6494 60.4668 57.8486 59.4862L58.1884 57.7477L61.1292 56.5288L62.6094 57.5172C63.4373 58.0758 64.5504 57.9664 65.2573 57.2554L68.405 54.1067C69.1158 53.3957 69.2135 52.2862 68.6667 51.4581L67.6786 49.9774L68.8972 47.0357L70.6351 46.6958C71.6154 46.5044 72.3262 45.6371 72.3262 44.637V40.1757C72.3262 39.1756 71.6154 38.3161 70.6351 38.1169L68.8972 37.777L67.6786 34.8353L68.6667 33.3547C69.2252 32.5265 69.1158 31.4131 68.405 30.706L65.2573 27.5573C64.5465 26.8463 63.4373 26.7486 62.6094 27.2955L61.1292 28.2839L58.1884 27.065L57.8486 25.3265C57.6572 24.346 56.7902 23.635 55.7904 23.635H51.3304C50.3189 23.6545 49.4596 24.3655 49.2722 25.3461ZM51.2718 28.233L51.6819 26.1742H55.4311L55.8412 28.233C55.9193 28.655 56.2122 28.9948 56.6028 29.155L60.7933 30.8857C61.1839 31.0459 61.633 31.0068 61.9845 30.7646L63.7225 29.5926L66.3703 32.2412L65.1987 33.9797C64.9604 34.3313 64.9175 34.7806 65.0776 35.1712L66.8078 39.363C66.9679 39.7537 67.3194 40.035 67.7295 40.1248L69.7876 40.535V44.2854L67.7295 44.6956C67.3077 44.7738 66.9679 45.0667 66.8078 45.4574L65.0776 49.6492C64.9175 50.0399 64.9565 50.4892 65.1987 50.8407L66.3703 52.5792L63.7225 55.2279L61.9845 54.0559C61.633 53.8176 61.1839 53.7746 60.7933 53.9348L56.6028 55.6654C56.2122 55.8256 55.931 56.1772 55.8412 56.5874L55.4311 58.6462H51.6819L51.2718 56.5874C51.1937 56.1655 50.9008 55.8256 50.5102 55.6654L46.3196 53.9348C45.9291 53.7746 45.48 53.8137 45.1285 54.0559L43.3905 55.2279L40.7426 52.5792L41.9143 50.8407C42.1525 50.4892 42.1955 50.0399 42.0354 49.6492L40.3052 45.4574C40.1451 45.0667 39.7936 44.7777 39.3835 44.6956L37.3253 44.2854V40.535L39.3835 40.1248C39.8053 40.0467 40.1451 39.7537 40.3052 39.363L42.0354 35.1712C42.1955 34.7806 42.1564 34.3313 41.9143 33.9797L40.7426 32.2412L43.3905 29.5926L45.1285 30.7646C45.48 31.0029 45.9291 31.0459 46.3196 30.8857L50.5102 29.155C50.9125 29.0066 51.1898 28.655 51.2718 28.233ZM43.1914 42.4185C43.1914 48.1378 47.8389 52.7905 53.5603 52.7905C59.278 52.7905 63.9293 48.1416 63.9293 42.4185C63.9293 36.6991 59.2818 32.0464 53.5603 32.0464C47.8427 32.0464 43.1914 36.6953 43.1914 42.4185ZM53.5483 34.5739C57.8678 34.5739 61.3866 38.0937 61.3866 42.4145C61.3866 46.7352 57.8678 50.255 53.5483 50.255C49.2289 50.255 45.7101 46.7352 45.7101 42.4145C45.7101 38.0976 49.2289 34.5739 53.5483 34.5739ZM23.8862 17.1541L24.9368 17.3651L25.6554 19.0958L25.0539 19.9865C24.5658 20.717 24.6556 21.7055 25.2844 22.3383L27.5339 24.5886C28.1627 25.2175 29.143 25.3074 29.8851 24.819L30.7755 24.2174L32.5135 24.9362L32.7244 25.9872C32.8962 26.8583 33.6656 27.4873 34.5443 27.4873H37.7234C38.6021 27.4873 39.3714 26.8583 39.5433 25.9872L39.7542 24.9362L41.4844 24.2174L42.3748 24.819C43.1051 25.3074 44.0933 25.2175 44.7259 24.5886L46.9755 22.3383C47.6043 21.7094 47.6941 20.7288 47.2059 19.9865L46.6045 19.0958L47.3231 17.3651L48.3737 17.1541C49.2446 16.9822 49.8734 16.2126 49.8734 15.3337V12.1536C49.8734 11.2746 49.2446 10.5051 48.3737 10.3332L47.3231 10.1222L46.6045 8.39153L47.2059 7.50081C47.6941 6.77026 47.6043 5.78184 46.9755 5.14897L44.7259 2.89875C44.0972 2.26978 43.1169 2.17993 42.3748 2.66826L41.4844 3.26988L39.7464 2.55105L39.5355 1.50015C39.3637 0.628973 38.5943 0 37.7156 0H34.5365C33.6578 0 32.8884 0.628973 32.7166 1.50015L32.5057 2.55105L30.7677 3.26988L29.8773 2.66826C29.1469 2.17993 28.1588 2.26978 27.5261 2.89875L25.2766 5.14897C24.6478 5.77795 24.558 6.75853 25.0461 7.50081L25.6476 8.39153L24.929 10.1222L23.8784 10.3332C23.0075 10.5051 22.3787 11.2747 22.3787 12.1536V15.3337C22.3865 16.2127 23.0153 16.9822 23.8862 17.1541ZM24.9172 12.7045L26.0888 12.474C26.5106 12.3959 26.8504 12.1029 27.0105 11.7122L28.2486 8.72361C28.4087 8.33295 28.3697 7.88369 28.1275 7.53209L27.4558 6.53199L28.9243 5.06304L29.9241 5.73499C30.2756 5.9733 30.7247 6.01627 31.1153 5.85609L34.103 4.61767C34.4935 4.45749 34.7747 4.1059 34.8646 3.6957L35.095 2.52368H37.1727L37.4031 3.6957C37.4812 4.11762 37.7741 4.45749 38.1647 4.61767L41.1524 5.85609C41.5429 6.01627 41.992 5.9772 42.3435 5.73499L43.3316 5.06304L44.8001 6.53199L44.1284 7.52037C43.8902 7.87197 43.8472 8.32123 44.0073 8.71189L45.2454 11.7005C45.4055 12.0911 45.757 12.3802 46.1671 12.4623L47.3387 12.6928V14.7711L46.1671 15.0016C45.7453 15.0797 45.4055 15.3727 45.2454 15.7634L44.0073 18.752C43.8472 19.1426 43.8863 19.5919 44.1284 19.9435L44.8001 20.9319L43.3316 22.4008L42.3435 21.7289C41.992 21.4906 41.5429 21.4476 41.1524 21.6078L38.1647 22.8462C37.7741 23.0064 37.4929 23.358 37.4031 23.7682L37.1727 24.9402H35.095L34.8646 23.7682C34.7864 23.3462 34.4935 23.0064 34.103 22.8462L31.1153 21.6078C30.7247 21.4476 30.2756 21.4867 29.9241 21.7289L28.936 22.4008L27.4675 20.9319L28.1393 19.9318C28.3775 19.5802 28.4205 19.1309 28.2603 18.7402L27.0223 15.7516C26.8621 15.361 26.5107 15.0719 26.1006 14.9899L24.9289 14.7594L24.925 12.7045L24.9172 12.7045ZM36.122 21.4945C40.4023 21.4945 43.8821 18.0136 43.8821 13.732C43.8821 9.45037 40.4023 5.96953 36.122 5.96953C31.8416 5.96953 28.3618 9.45037 28.3618 13.732C28.3657 18.0136 31.8533 21.4945 36.122 21.4945ZM36.122 8.51318C39.0003 8.51318 41.3514 10.8532 41.3514 13.7442C41.3514 16.6352 39.0121 18.9752 36.122 18.9752C33.2436 18.9752 30.8925 16.6352 30.8925 13.7442C30.8925 10.8532 33.2436 8.51318 36.122 8.51318ZM11.1889 39.3873L11.9973 39.5474L12.5363 40.8562L12.0754 41.5476C11.6068 42.2469 11.6966 43.1884 12.2941 43.7862L14.2235 45.7161C14.8249 46.3177 15.7622 46.4075 16.4613 45.9348L17.1526 45.4738L18.4609 46.013L18.6211 46.8216C18.7812 47.6498 19.5193 48.2515 20.359 48.2515H23.089C23.9286 48.2515 24.6668 47.6499 24.8269 46.8216L24.9949 46.0286L26.3032 45.4895L26.9945 45.9387C27.6936 46.4075 28.6348 46.3177 29.2323 45.72L31.1617 43.7901C31.7631 43.1884 31.8529 42.2508 31.3804 41.5515L30.9195 40.8601L31.4585 39.5513L32.2669 39.3912C33.0949 39.231 33.6963 38.4926 33.6963 37.6527V34.9219C33.6963 34.082 33.0949 33.3437 32.2669 33.1834L31.4585 33.0233L30.9195 31.7145L31.3804 31.0231C31.849 30.3238 31.7592 29.3823 31.1617 28.7845L29.2323 26.8546C28.6309 26.253 27.6935 26.1632 26.9945 26.6359L26.3032 27.0968L24.9949 26.546L24.8347 25.7373C24.6746 24.9091 23.9443 24.3075 23.0968 24.3075H20.3668C19.5271 24.3075 18.789 24.9091 18.6289 25.7373L18.4687 26.546L17.1604 27.0851L16.4691 26.6241C15.77 26.1553 14.8288 26.2452 14.2313 26.8429L12.3019 28.7728C11.7005 29.3744 11.6107 30.3121 12.0832 31.0113L12.5441 31.7028L11.9973 33.0154L11.1889 33.1756C10.3609 33.3358 9.75946 34.0663 9.75946 34.9141V37.6449C9.75946 38.4965 10.357 39.227 11.1889 39.3873ZM12.2864 35.5353L13.1456 35.3634C13.5674 35.2853 13.9072 34.9923 14.0673 34.6016L15.1257 32.0427C15.2858 31.6521 15.2467 31.2028 15.0046 30.8512L14.5164 30.1207L15.567 29.0698L16.2973 29.5581C16.6488 29.7964 17.098 29.8394 17.4885 29.6792L20.0466 28.6205C20.4371 28.4603 20.7183 28.1087 20.8082 27.6985L20.98 26.8391H22.468L22.6399 27.6985C22.718 28.1204 23.0109 28.4603 23.4014 28.6205L25.9595 29.6792C26.3501 29.8394 26.7992 29.8003 27.1507 29.5581L27.881 29.0698L28.9316 30.1207L28.4434 30.8512C28.2052 31.2028 28.1622 31.6521 28.3224 32.0427L29.3807 34.6016C29.5409 34.9922 29.8924 35.2735 30.3024 35.3634L31.1617 35.5353V37.0237L30.3024 37.1956C29.8806 37.2738 29.5409 37.5667 29.3807 37.9574L28.3224 40.5163C28.1622 40.9069 28.2013 41.3562 28.4434 41.7078L28.9316 42.4383L27.881 43.4892L27.1546 42.997C26.8031 42.7587 26.354 42.7157 25.9634 42.8759L23.4053 43.9346C23.0148 44.0948 22.7336 44.4464 22.6438 44.8566L22.4719 45.716H20.9839L20.8121 44.8566C20.734 44.4346 20.4411 44.0948 20.0505 43.9346L17.4924 42.8759C17.1019 42.7157 16.6527 42.7548 16.3012 42.997L15.5709 43.4853L14.5203 42.4344L15.0085 41.7039C15.2467 41.3523 15.2897 40.903 15.1296 40.5124L14.0712 37.9535C13.9111 37.5628 13.5596 37.2816 13.1495 37.1917L12.2903 37.0198L12.2981 35.5353H12.2864ZM21.7337 42.2781C25.0339 42.2781 27.7208 39.5865 27.7208 36.2892C27.7208 32.9881 25.03 30.3004 21.7337 30.3004C18.4336 30.3004 15.7466 32.992 15.7466 36.2892C15.7466 39.5865 18.4375 42.2781 21.7337 42.2781ZM21.7337 32.8241C23.6435 32.8241 25.1939 34.3751 25.1939 36.2853C25.1939 38.1957 23.6434 39.7466 21.7337 39.7466C19.8239 39.7466 18.2735 38.1956 18.2735 36.2853C18.2774 34.375 19.824 32.8241 21.7337 32.8241Z" fill="#224B73"/>
</svg>
