<svg width="49" height="43" viewBox="0 0 49 43" fill="none" xmlns="http://www.w3.org/2000/svg">
<path d="M47.8847 31.8139C47.1772 31.4851 46.2783 31.5113 45.4835 31.7281C45.8518 31.0825 46.3752 30.3034 46.93 30.0771C47.1311 29.9961 47.228 29.7698 47.1457 29.572C47.0633 29.3743 46.8331 29.279 46.632 29.36C45.8542 29.6745 45.234 30.5798 44.8051 31.335C44.5604 30.6132 44.1146 30.039 43.5355 29.765C42.8595 29.4458 42.0866 29.5697 41.3548 30.1129C41.1804 30.2415 41.1465 30.4845 41.2797 30.6561C41.4106 30.8276 41.6577 30.8609 41.8322 30.7299C42.3289 30.3582 42.7868 30.2701 43.1963 30.4631C43.5524 30.6322 43.848 31.011 44.0322 31.4947C43.6421 31.3207 43.1914 31.2659 42.6996 31.3422C41.6286 31.509 40.5771 32.2952 40.3542 33.0957C40.2961 33.3029 40.4196 33.515 40.6304 33.5722C40.6644 33.5817 40.7007 33.5864 40.7346 33.5864C40.9067 33.5864 41.0666 33.4745 41.115 33.3006C41.2434 32.8431 42.0018 32.2332 42.8232 32.107C43.1842 32.0522 43.6592 32.0808 44.0492 32.4357C41.9752 34.0725 40.9866 38.2156 40.9188 41.6892H38.9635L38.9611 7.97308H19.7134V15.6371H26.5339C26.6793 15.6371 26.7956 15.7515 26.7956 15.8945V41.6867H26.2698V16.1518H10.4913V41.6867H6.73569C7.41166 37.7152 7.17424 32.9791 5.14382 31.111C5.88523 30.4677 6.68241 30.5701 7.11852 30.7059C7.90112 30.9513 8.42693 31.5493 8.46328 31.9663C8.48024 32.1688 8.65227 32.3212 8.85579 32.3212C8.86791 32.3212 8.8776 32.3212 8.88971 32.3189C9.10536 32.2998 9.2677 32.114 9.24831 31.8995C9.17804 31.099 8.38333 30.289 7.35839 29.9674C6.5467 29.7148 5.74953 29.8054 5.0663 30.208C5.21652 29.6267 5.51939 29.1549 5.91192 28.9262C6.36743 28.6641 6.92954 28.7189 7.58374 29.0954C7.77273 29.2026 8.0126 29.1406 8.12163 28.9548C8.23067 28.7714 8.16767 28.5331 7.98111 28.4259C6.83993 27.7707 6.00882 27.9732 5.51452 28.2591C4.95725 28.5808 4.54293 29.193 4.32968 29.9411C3.84752 29.236 3.13757 28.4211 2.35014 28.0757C2.15146 27.9875 1.91885 28.0757 1.83163 28.271C1.7444 28.4664 1.83163 28.6951 2.0303 28.7809C2.61181 29.0358 3.19816 29.691 3.61976 30.289C2.97039 30.1174 2.292 30.1174 1.69108 30.308C0.893902 30.5606 0.317295 31.1157 0.0240921 31.909C-0.0510169 32.1092 0.0555908 32.3307 0.25912 32.4046C0.302733 32.4213 0.348768 32.4284 0.39238 32.4284C0.552292 32.4284 0.704942 32.3307 0.763092 32.1735C0.969042 31.6112 1.37368 31.2205 1.93094 31.0442C2.39372 30.8965 2.93405 30.906 3.45254 31.049C2.96795 31.2967 2.49787 31.6851 2.1102 32.1854C1.40272 33.0931 1.12409 34.1509 1.36395 35.0133C1.4221 35.2206 1.63775 35.3421 1.84612 35.2849C2.05691 35.2278 2.18048 35.0157 2.12233 34.8108C1.94788 34.1795 2.17563 33.3742 2.73533 32.6571C3.23446 32.0162 3.89109 31.5874 4.44592 31.5302C6.34309 32.993 6.62898 37.7482 5.93843 41.6863H1.63528C1.41721 41.6863 1.24276 41.8603 1.24276 42.0723C1.24276 42.2867 1.41964 42.4583 1.63528 42.4583H45.2529C45.471 42.4583 45.6454 42.2843 45.6454 42.0723C45.6454 41.8579 45.4686 41.6863 45.2529 41.6863H41.6984C41.7687 38.1841 42.8033 34.1748 44.7223 32.8952C45.1342 32.9404 45.5679 33.2502 45.878 33.7243C46.193 34.2079 46.4183 34.9656 46.1009 35.6445C46.0113 35.8399 46.0961 36.0686 46.2948 36.1567C46.4935 36.2473 46.7261 36.1615 46.8157 35.9661C47.1985 35.149 47.0944 34.1531 46.5395 33.3026C46.3093 32.95 46.0258 32.6664 45.7157 32.4639C46.3796 32.2876 47.0701 32.29 47.545 32.5116C47.9303 32.6903 48.1508 32.9928 48.2162 33.4312C48.2452 33.6242 48.4124 33.7624 48.6063 33.7624C48.6256 33.7624 48.645 33.76 48.662 33.7576C48.8776 33.7266 49.0254 33.5313 48.9964 33.3192C48.8946 32.6212 48.5093 32.0994 47.8842 31.8087L47.8847 31.8139ZM25.7924 14.3767C25.7924 14.5197 25.6761 14.634 25.5307 14.634H22.9939C22.8485 14.634 22.7322 14.5197 22.7322 14.3767V11.4558C22.7322 11.3129 22.8485 11.1985 22.9939 11.1985H25.5307C25.6761 11.1985 25.7924 11.3129 25.7924 11.4558V14.3767ZM32.8796 11.4558C32.8796 11.3129 32.9959 11.1985 33.1413 11.1985H35.6781C35.8235 11.1985 35.9398 11.3129 35.9398 11.4558V14.3767C35.9398 14.5197 35.8235 14.634 35.6781 14.634H33.1413C32.9959 14.634 32.8796 14.5197 32.8796 14.3767V11.4558ZM32.8796 17.2952C32.8796 17.1522 32.9959 17.0379 33.1413 17.0379H35.6781C35.8235 17.0379 35.9398 17.1522 35.9398 17.2952V20.2161C35.9398 20.359 35.8235 20.4734 35.6781 20.4734H33.1413C32.9959 20.4734 32.8796 20.359 32.8796 20.2161V17.2952ZM32.8796 23.1345C32.8796 22.9916 32.9959 22.8772 33.1413 22.8772H35.6781C35.8235 22.8772 35.9398 22.9916 35.9398 23.1345V26.0554C35.9398 26.1984 35.8235 26.3127 35.6781 26.3127H33.1413C32.9959 26.3127 32.8796 26.1984 32.8796 26.0554V23.1345ZM32.8796 28.9739C32.8796 28.8309 32.9959 28.7165 33.1413 28.7165H35.6781C35.8235 28.7165 35.9398 28.8309 35.9398 28.9739V31.8948C35.9398 32.0377 35.8235 32.1521 35.6781 32.1521H33.1413C32.9959 32.1521 32.8796 32.0377 32.8796 31.8948V28.9739ZM31.5495 37.5314H33.8295C33.9748 37.5314 34.0911 37.6458 34.0911 37.7887V41.6864H31.2854V37.7887C31.2854 37.6458 31.4017 37.5314 31.5471 37.5314H31.5495ZM27.806 11.4556C27.806 11.3126 27.9223 11.1983 28.0677 11.1983H30.6045C30.7498 11.1983 30.8661 11.3126 30.8661 11.4556V14.3765C30.8661 14.5194 30.7498 14.6338 30.6045 14.6338H28.0677C27.9223 14.6338 27.806 14.5194 27.806 14.3765V11.4556ZM27.806 17.2949C27.806 17.152 27.9223 17.0376 28.0677 17.0376H30.6045C30.7498 17.0376 30.8661 17.152 30.8661 17.2949V20.2158C30.8661 20.3588 30.7498 20.4731 30.6045 20.4731H28.0677C27.9223 20.4731 27.806 20.3588 27.806 20.2158V17.2949ZM27.806 23.1343C27.806 22.9913 27.9223 22.877 28.0677 22.877H30.6045C30.7498 22.877 30.8661 22.9913 30.8661 23.1343V26.0552C30.8661 26.1981 30.7498 26.3125 30.6045 26.3125H28.0677C27.9223 26.3125 27.806 26.1981 27.806 26.0552V23.1343ZM27.806 28.9736C27.806 28.8307 27.9223 28.7163 28.0677 28.7163H30.6045C30.7498 28.7163 30.8661 28.8307 30.8661 28.9736V31.8945C30.8661 32.0375 30.7498 32.1518 30.6045 32.1518H28.0677C27.9223 32.1518 27.806 32.0375 27.806 31.8945V28.9736ZM27.9247 37.7886C27.9247 37.6456 28.041 37.5313 28.1864 37.5313H30.4664C30.6118 37.5313 30.7281 37.6456 30.7281 37.7886V41.6862H27.9223V37.7886H27.9247ZM19.8103 19.1487C19.8103 19.0057 19.9266 18.8914 20.072 18.8914H22.9868C23.1321 18.8914 23.2484 19.0057 23.2484 19.1487V22.0147C23.2484 22.1577 23.1321 22.272 22.9868 22.272H20.072C19.9266 22.272 19.8103 22.1577 19.8103 22.0147V19.1487ZM19.8103 24.8784C19.8103 24.7355 19.9266 24.6211 20.072 24.6211H22.9868C23.1321 24.6211 23.2484 24.7355 23.2484 24.8784V27.7445C23.2484 27.8874 23.1321 28.0018 22.9868 28.0018H20.072C19.9266 28.0018 19.8103 27.8874 19.8103 27.7445V24.8784ZM19.8103 30.6082C19.8103 30.4652 19.9266 30.3508 20.072 30.3508H22.9868C23.1321 30.3508 23.2484 30.4652 23.2484 30.6082V33.4742C23.2484 33.6172 23.1321 33.7315 22.9868 33.7315H20.072C19.9266 33.7315 19.8103 33.6172 19.8103 33.4742V30.6082ZM19.8079 37.5294H22.0879C22.2333 37.5294 22.3496 37.6437 22.3496 37.7867V41.6843H19.5438V37.7867C19.5438 37.6437 19.6601 37.5294 19.8055 37.5294H19.8079ZM13.9807 19.1462C13.9807 19.0033 14.097 18.8889 14.2424 18.8889H17.1572C17.3026 18.8889 17.4189 19.0033 17.4189 19.1462V22.0123C17.4189 22.1552 17.3026 22.2696 17.1572 22.2696H14.2424C14.097 22.2696 13.9807 22.1552 13.9807 22.0123V19.1462ZM13.9807 24.876C13.9807 24.733 14.097 24.6187 14.2424 24.6187H17.1572C17.3026 24.6187 17.4189 24.733 17.4189 24.876V27.742C17.4189 27.885 17.3026 27.9993 17.1572 27.9993H14.2424C14.097 27.9993 13.9807 27.885 13.9807 27.742V24.876ZM13.9807 30.6057C13.9807 30.4628 14.097 30.3484 14.2424 30.3484H17.1572C17.3026 30.3484 17.4189 30.4628 17.4189 30.6057V33.4718C17.4189 33.6147 17.3026 33.7291 17.1572 33.7291H14.2424C14.097 33.7291 13.9807 33.6147 13.9807 33.4718V30.6057ZM15.873 37.7843C15.873 37.6414 15.9893 37.527 16.1347 37.527H18.3856C18.531 37.527 18.6473 37.6414 18.6473 37.7843V41.6819H15.8706V37.7843H15.873ZM23.4788 4.03705L23.2196 4.81846H22.9967V7.45106H35.6806V4.81846H35.3729C35.3778 4.79464 35.3875 4.77082 35.3778 4.74699L35.087 3.87501L35.843 3.33658C35.8818 3.31037 35.906 3.2651 35.906 3.21507C35.906 3.13169 35.8382 3.06498 35.7534 3.06498L34.8181 3.06736L34.5322 2.19538C34.5177 2.15012 34.4813 2.11438 34.4329 2.0977C34.3529 2.07149 34.2681 2.11676 34.2415 2.19538L33.9555 3.06974L33.0324 3.06736C32.9815 3.0626 32.9306 3.08642 32.8991 3.1293C32.8507 3.19601 32.8652 3.28893 32.9331 3.33896L33.689 3.87739L33.3983 4.74937C33.391 4.77319 33.4056 4.79702 33.4104 4.82084H30.7161C30.7354 4.78511 30.7427 4.7446 30.7282 4.7041L30.2363 3.22459L31.518 2.31212C31.5568 2.28591 31.581 2.24064 31.581 2.19061C31.581 2.10722 31.5132 2.04052 31.4284 2.04052L29.8462 2.0429L29.3616 0.563395C29.3471 0.518129 29.3107 0.482394 29.2623 0.465713C29.1823 0.439506 29.0975 0.484772 29.0709 0.563395L28.5839 2.0429L27.0138 2.04052C26.9629 2.03575 26.9121 2.05958 26.8806 2.10246C26.8321 2.16917 26.8466 2.26209 26.9145 2.31212L28.1962 3.22459L27.7043 4.7041C27.6922 4.74222 27.7019 4.7851 27.7237 4.82084H25.1336L24.8743 4.03943L25.6303 3.501C25.6691 3.4748 25.6933 3.42953 25.6933 3.3795C25.6933 3.29611 25.6255 3.22941 25.5407 3.22941L24.6054 3.23179L24.3195 2.35981C24.305 2.31454 24.2686 2.27881 24.2202 2.26213C24.1402 2.23592 24.0554 2.28119 24.0288 2.35981L23.7429 3.23417L22.8197 3.23179C22.7688 3.22702 22.7179 3.25085 22.6864 3.29373C22.638 3.36044 22.6525 3.45335 22.7204 3.50338L23.4764 4.04181L23.4788 4.03705ZM33.495 3.36518H34.0692C34.1371 3.36518 34.1952 3.3223 34.2146 3.26035L34.3915 2.7243L34.5684 3.26035C34.5902 3.32706 34.6532 3.36756 34.721 3.36518H35.288L34.8228 3.69634C34.7671 3.73684 34.7453 3.80831 34.7695 3.87026L34.9464 4.40154L34.4836 4.068C34.4279 4.0275 34.3552 4.02988 34.3019 4.07038L33.8415 4.40154L34.0208 3.86549C34.0426 3.80117 34.0184 3.73446 33.9651 3.69872L33.4999 3.36756L33.495 3.36518ZM34.3891 4.37293L35.0118 4.82083H33.7664L34.3891 4.37293ZM28.5207 3.21271C28.5425 3.14838 28.5183 3.08167 28.465 3.04593L27.4764 2.34076L28.6976 2.34315C28.7654 2.34315 28.8236 2.30026 28.843 2.23831L29.2185 1.09474L29.5941 2.23831C29.6159 2.30503 29.6789 2.34552 29.7467 2.34315L30.9606 2.34076L29.972 3.04593C29.9163 3.08644 29.8945 3.15791 29.9187 3.21985L30.2967 4.35629L29.3106 3.64868C29.2549 3.60818 29.1822 3.61056 29.1289 3.65106L28.1452 4.35623L28.5256 3.21504L28.5207 3.21271ZM29.2161 3.95124L30.4252 4.81846H28.0095L29.2185 3.95124H29.2161ZM23.779 4.81846L24.174 4.53496L24.5689 4.81846H23.779ZM23.8542 3.52717C23.922 3.52717 23.9801 3.48429 23.9995 3.42234L24.1764 2.88629L24.3533 3.42234C24.3751 3.48905 24.4381 3.52955 24.5059 3.52717H25.0729L24.6077 3.85833C24.552 3.89884 24.5302 3.97031 24.5544 4.03225L24.7313 4.56354L24.2685 4.23C24.2128 4.1895 24.1401 4.19188 24.0868 4.23238L23.6264 4.56354L23.8057 4.02749C23.8275 3.96316 23.8033 3.89646 23.75 3.86072L23.2848 3.52956H23.859L23.8542 3.52717Z" fill="#224B73"/>
</svg>
