<svg width="53" height="43" viewBox="0 0 53 43" fill="none" xmlns="http://www.w3.org/2000/svg">
<path d="M51.6695 17.9615L26.0068 0L0.344168 17.9615C-0.0205905 18.2186 -0.110256 18.7268 0.146844 19.0916L2.10205 21.8958C2.22759 22.0692 2.41294 22.1888 2.62822 22.2247C2.83748 22.2665 3.05871 22.2187 3.23209 22.0931L25.4926 6.50536C25.8035 6.29012 26.2101 6.29012 26.521 6.50536L48.7816 22.0931C48.9609 22.2187 49.1762 22.2665 49.3854 22.2247C49.6007 22.1888 49.7861 22.0692 49.9116 21.8958L51.8668 19.0916C52.1239 18.7268 52.0343 18.2186 51.6695 17.9615Z" fill="#224B73"/>
<path d="M9.60547 19.8211V40.3656C9.60547 41.5196 10.5442 42.4583 11.6982 42.4583H17.3366C18.4905 42.4583 19.4293 41.5196 19.4293 40.3656V30.5478C19.4293 28.4012 21.1752 26.6613 23.3157 26.6613H28.697C30.8376 26.6613 32.5835 28.4012 32.5835 30.5478V40.3656C32.5835 41.5196 33.5222 42.4583 34.6762 42.4583H40.3146C41.4685 42.4583 42.4073 41.5196 42.4073 40.3656V19.8211L26.0064 8.33508L9.60547 19.8211Z" fill="#224B73"/>
</svg>
