<svg width="35" height="43" viewBox="0 0 35 43" fill="none" xmlns="http://www.w3.org/2000/svg">
<path d="M29.6943 17.199L28.9548 19.7124C28.5951 20.9396 27.709 21.9371 26.5165 22.4555C25.3308 22.9674 23.9784 22.9346 22.8259 22.3571C20.8806 21.4055 19.9613 19.2268 20.6275 17.1924L22.1997 12.0541C23.2523 8.60885 21.8133 4.90115 18.6955 3.02418L14.4119 0.458252C14.1321 5.25546 12.1669 9.78346 8.80271 13.3207L4.15923 18.2031C1.30795 21.2087 -0.204138 25.2906 0.0222159 29.3923C0.242055 33.3429 1.99413 36.893 4.96543 39.4067C6.44439 40.6536 8.12313 41.6773 9.96833 42.4583C6.79728 33.4938 8.81584 26.6558 15.844 22.6264C16.0772 22.4951 16.3636 22.5017 16.5901 22.6461C16.8166 22.7905 16.9365 23.0464 16.9032 23.3023L15.744 32.562C15.6308 33.4086 15.8773 34.242 16.4236 34.9048C16.9632 35.561 17.7427 35.9745 18.602 36.0467C19.468 36.132 20.2942 35.8629 20.947 35.3117C21.5998 34.7604 21.9996 33.9926 22.0529 33.1461L22.2727 29.8583C22.2861 29.6483 22.3993 29.458 22.5725 29.3399C22.7457 29.2152 22.9722 29.1824 23.1788 29.2414C25.4304 29.9305 26.9827 31.138 27.7621 32.8442C28.7681 35.0229 28.5349 37.9631 27.0493 41.7822C31.2596 39.505 34.1908 35.305 34.8568 30.462C35.5563 25.3431 33.6713 20.572 29.6943 17.199Z" fill="#224B73"/>
</svg>
