<svg width="19" height="20" viewBox="0 0 19 20" fill="none" xmlns="http://www.w3.org/2000/svg">
<path d="M16.7381 0.75H2.2619C1.01333 0.75 0 1.76333 0 3.0119V17.4881C0 18.7367 1.01333 19.75 2.2619 19.75H16.7381C17.9867 19.75 19 18.7367 19 17.4881V3.0119C19 1.76333 17.9867 0.75 16.7381 0.75ZM5.88095 7.9881V16.5833H3.16667V7.9881H5.88095ZM3.16667 5.48643C3.16667 4.8531 3.70952 4.36905 4.52381 4.36905C5.3381 4.36905 5.84929 4.8531 5.88095 5.48643C5.88095 6.11976 5.37429 6.63095 4.52381 6.63095C3.70952 6.63095 3.16667 6.11976 3.16667 5.48643ZM15.8333 16.5833H13.119C13.119 16.5833 13.119 12.3943 13.119 12.0595C13.119 11.1548 12.6667 10.25 11.5357 10.2319H11.4995C10.4048 10.2319 9.95238 11.1638 9.95238 12.0595C9.95238 12.4712 9.95238 16.5833 9.95238 16.5833H7.2381V7.9881H9.95238V9.14619C9.95238 9.14619 10.8255 7.9881 12.5807 7.9881C14.3767 7.9881 15.8333 9.22309 15.8333 11.7248V16.5833Z" fill="#132B42"/>
</svg>
