<svg width="23" height="23" viewBox="0 0 23 23" fill="none" xmlns="http://www.w3.org/2000/svg">
<path d="M5.95967 21.2981C7.65237 22.2196 9.56 22.7029 11.5 22.7029C17.84 22.7029 23 17.6095 23 11.3514C23 5.09334 17.84 0 11.5 0C5.16 0 0 5.09334 0 11.3514C0 13.3616 0.536467 15.3294 1.5599 17.0607L0.0963666 23L5.95967 21.2981ZM6.57033 6.04703C6.81382 5.82596 7.13023 5.70774 7.46097 5.70774H7.81123C8.27477 5.70774 8.68753 5.99435 8.8451 6.42235L9.56123 8.37082C9.62764 8.55461 9.59509 8.75897 9.47139 8.91319L8.90499 9.61109C8.68103 9.88356 8.62114 10.2563 8.75134 10.5815C9.43754 12.2857 11.4779 13.4836 12.5443 14.0106C12.9311 14.2008 13.3946 14.1288 13.7006 13.8294L14.3269 13.2111C14.4767 13.0633 14.7006 13.0106 14.9037 13.0723L16.8035 13.6713C17.2605 13.8165 17.5704 14.2342 17.5704 14.7072V15.184C17.5704 15.5323 17.4298 15.8678 17.1798 16.1145C15.3295 17.9178 12.2591 16.5952 10.2698 15.3909C8.83618 14.5221 7.58618 13.3808 6.65644 11.9954C4.40644 8.64323 5.77347 6.76431 6.57033 6.04703Z" fill="white"/>
</svg>
